<svg width="180" height="47" viewBox="0 0 180 47" fill="none" xmlns="http://www.w3.org/2000/svg">
<path d="M3.952 38.2C2.768 38.2 1.872 37.896 1.264 37.288C0.688 36.68 0.4 36.008 0.4 35.272C0.4 35.016 0.432 34.776 0.496 34.552C0.56 34.328 0.64 34.12 0.736 33.928C1.984 33.864 3.2 33.432 4.384 32.632C5.568 31.8 6.72 30.696 7.84 29.32C8.96 27.912 10.032 26.296 11.056 24.472C12.112 22.616 13.136 20.632 14.128 18.52C15.12 16.408 16.08 14.232 17.008 11.992C17.968 9.752 18.896 7.528 19.792 5.32H29.584C29.552 9.416 29.536 13.032 29.536 16.168C29.568 19.304 29.632 22.04 29.728 24.376C29.76 26.36 29.84 28.072 29.968 29.512C30.128 30.952 30.336 32.152 30.592 33.112C30.848 34.04 31.184 34.792 31.6 35.368C31.216 36.072 30.624 36.68 29.824 37.192C29.024 37.704 28.032 37.96 26.848 37.96C25.792 37.96 24.896 37.736 24.16 37.288C23.424 36.872 22.832 36.104 22.384 34.984C21.968 33.832 21.648 32.232 21.424 30.184C21.232 28.136 21.136 25.528 21.136 22.36C21.136 21.624 21.136 20.824 21.136 19.96C21.168 19.096 21.2 18.2 21.232 17.272C21.264 16.344 21.296 15.4 21.328 14.44C21.36 13.48 21.408 12.536 21.472 11.608H21.328C20.752 13.272 20.16 14.824 19.552 16.264C18.976 17.704 18.4 19.064 17.824 20.344C17.28 21.624 16.736 22.856 16.192 24.04C15.648 25.192 15.088 26.328 14.512 27.448C13.424 29.528 12.384 31.272 11.392 32.68C10.4 34.056 9.456 35.16 8.56 35.992C7.696 36.792 6.88 37.352 6.112 37.672C5.344 38.024 4.624 38.2 3.952 38.2ZM11.44 29.224L13.072 25.528H24.448L24.256 29.224H11.44ZM7.36 20.056C6.08 20.056 4.992 19.784 4.096 19.24C3.232 18.696 2.592 17.96 2.176 17.032C1.76 16.072 1.552 15.016 1.552 13.864C1.584 12.712 1.84 11.56 2.32 10.408C2.8 9.224 3.52 8.152 4.48 7.192C5.44 6.2 6.656 5.416 8.128 4.84C9.6 4.232 11.36 3.928 13.408 3.928C14.688 3.928 16 3.992 17.344 4.12C18.72 4.248 20.096 4.424 21.472 4.648C22.88 4.84 24.256 5 25.6 5.128C26.976 5.256 28.304 5.32 29.584 5.32L24.208 9.976L18.832 7.912L18.544 7.432C18.128 7.272 17.664 7.144 17.152 7.048C16.64 6.952 16.112 6.904 15.568 6.904C14.448 6.904 13.44 7.176 12.544 7.72C11.648 8.232 10.928 8.968 10.384 9.928C9.872 10.888 9.584 12.008 9.52 13.288C9.456 14.216 9.504 15.112 9.664 15.976C9.824 16.808 10.16 17.736 10.672 18.76C10.192 19.24 9.632 19.576 8.992 19.768C8.384 19.96 7.84 20.056 7.36 20.056ZM37.807 46.6C36.527 46.6 35.503 46.248 34.735 45.544C33.967 44.84 33.583 43.832 33.583 42.52C33.583 41.592 33.807 40.712 34.255 39.88C34.703 39.048 35.295 38.264 36.031 37.528C36.799 36.824 37.599 36.184 38.431 35.608L34.879 35.752C34.815 33.128 34.735 30.792 34.639 28.744C34.575 26.664 34.479 24.76 34.351 23.032C34.255 21.272 34.111 19.608 33.919 18.04C33.759 16.632 33.535 15.56 33.247 14.824C32.959 14.088 32.527 13.544 31.951 13.192C32.655 12.584 33.407 12.168 34.207 11.944C35.039 11.688 35.903 11.56 36.799 11.56C38.175 11.56 39.231 11.8 39.967 12.28C40.735 12.76 41.279 13.48 41.599 14.44C41.919 15.4 42.127 16.6 42.223 18.04C42.255 18.456 42.271 19.08 42.271 19.912C42.303 20.744 42.319 21.656 42.319 22.648C42.351 23.64 42.351 24.616 42.319 25.576L42.271 31.72C43.423 30.216 44.447 28.6 45.343 26.872C46.271 25.112 46.991 23.304 47.503 21.448C48.047 19.592 48.319 17.768 48.319 15.976C48.319 15.56 48.303 15.112 48.271 14.632C48.239 14.152 48.143 13.672 47.983 13.192C48.463 12.712 49.055 12.328 49.759 12.04C50.463 11.72 51.263 11.56 52.159 11.56C52.863 11.56 53.503 11.688 54.079 11.944C54.687 12.2 55.167 12.616 55.519 13.192C55.871 13.768 56.047 14.52 56.047 15.448C56.047 16.536 55.823 17.72 55.375 19C54.927 20.248 54.319 21.544 53.551 22.888C52.783 24.232 51.903 25.576 50.911 26.92C49.951 28.232 48.943 29.48 47.887 30.664C46.863 31.848 45.855 32.904 44.863 33.832C43.839 34.824 42.975 35.8 42.271 36.76C41.567 37.688 41.215 38.872 41.215 40.312C41.215 41.08 41.407 41.848 41.791 42.616C42.207 43.416 42.719 44.072 43.327 44.584C42.591 45.256 41.727 45.752 40.735 46.072C39.775 46.424 38.799 46.6 37.807 46.6ZM54.4285 37.864L58.7965 15.784L66.2845 15.256C67.2445 13.912 68.4605 12.968 69.9325 12.424C71.4045 11.848 72.8765 11.56 74.3485 11.56C76.4925 11.56 78.1245 12.072 79.2445 13.096C80.3645 14.088 80.9245 15.544 80.9245 17.464C80.9245 19 80.5885 20.344 79.9165 21.496C79.2445 22.648 78.3165 23.608 77.1325 24.376C75.9805 25.112 74.6525 25.672 73.1485 26.056L66.3325 25.624C67.4205 25.336 68.4445 24.84 69.4045 24.136C70.3645 23.432 71.1325 22.552 71.7085 21.496C72.3165 20.44 72.6205 19.288 72.6205 18.04C72.6205 16.184 71.9165 15.256 70.5085 15.256C69.5805 15.256 68.7965 15.656 68.1565 16.456C67.5165 17.256 67.0045 18.232 66.6205 19.384C66.2685 20.536 65.9805 21.656 65.7565 22.744L63.0205 37L54.4285 37.864ZM74.0125 37.96C72.8925 37.96 71.9325 37.72 71.1325 37.24C70.3325 36.76 69.6445 36.104 69.0685 35.272C68.5245 34.44 68.0765 33.496 67.7245 32.44C67.3725 31.352 67.0845 30.232 66.8605 29.08C66.6365 27.928 66.4605 26.776 66.3325 25.624L73.6765 25.096L75.9325 31C76.2845 31.864 76.7165 32.632 77.2285 33.304C77.7725 33.944 78.4445 34.312 79.2445 34.408C78.9565 35.56 78.3165 36.44 77.3245 37.048C76.3325 37.656 75.2285 37.96 74.0125 37.96ZM66.3325 16.216L58.7485 15.928C59.0365 14.584 59.2925 13.224 59.5165 11.848C59.7725 10.472 59.9805 9.128 60.1405 7.816C60.3005 6.472 60.3965 5.24 60.4285 4.12C60.4605 3.704 60.4605 3.32 60.4285 2.968C60.4285 2.616 60.4285 2.28 60.4285 1.96C61.1325 1.544 61.8525 1.256 62.5885 1.096C63.3565 0.903999 64.0925 0.808 64.7965 0.808C65.9805 0.808 66.9725 1.112 67.7725 1.72C68.6045 2.328 69.0045 3.368 68.9725 4.84C68.9725 5.32 68.9085 5.896 68.7805 6.568C68.6845 7.24 68.5405 7.976 68.3485 8.776C68.1885 9.544 67.9965 10.36 67.7725 11.224C67.5805 12.056 67.3565 12.904 67.1005 13.768C66.8445 14.632 66.5885 15.448 66.3325 16.216ZM88.6668 37.96C86.9068 37.96 85.4668 37.576 84.3468 36.808C83.2268 36.008 82.3948 34.92 81.8508 33.544C81.3388 32.136 81.0828 30.488 81.0828 28.6C81.0828 26.2 81.4348 23.976 82.1388 21.928C82.8748 19.848 83.8988 18.04 85.2108 16.504C86.5228 14.936 88.0428 13.72 89.7708 12.856C91.4988 11.992 93.3868 11.56 95.4348 11.56C97.0668 11.56 98.7468 11.88 100.475 12.52L107.339 11.656L103.787 30.376C103.755 30.664 103.707 31 103.643 31.384C103.579 31.768 103.547 32.104 103.547 32.392C103.547 32.968 103.707 33.496 104.027 33.976C104.379 34.424 104.923 34.664 105.659 34.696C105.403 35.464 104.987 36.088 104.411 36.568C103.835 37.048 103.163 37.4 102.395 37.624C101.659 37.848 100.907 37.96 100.139 37.96C99.1468 37.96 98.2348 37.736 97.4028 37.288C96.5708 36.84 96.0108 36.152 95.7228 35.224C94.8908 36.056 93.8828 36.712 92.6988 37.192C91.5148 37.704 90.1708 37.96 88.6668 37.96ZM91.4508 34.936C92.4108 34.936 93.1788 34.6 93.7548 33.928C94.3628 33.224 94.8428 32.376 95.1948 31.384C95.5468 30.392 95.8028 29.432 95.9628 28.504L98.2668 15.448C97.7868 15.096 97.2908 14.84 96.7788 14.68C96.2988 14.52 95.8668 14.44 95.4828 14.44C94.5548 14.44 93.7388 14.808 93.0348 15.544C92.3308 16.28 91.7228 17.272 91.2108 18.52C90.7308 19.736 90.3308 21.08 90.0108 22.552C89.7228 23.992 89.5148 25.464 89.3868 26.968C89.2588 28.44 89.1948 29.784 89.1948 31C89.1948 31.992 89.3388 32.904 89.6268 33.736C89.9148 34.536 90.5228 34.936 91.4508 34.936ZM128.701 37.96C127.229 37.96 126.029 37.592 125.101 36.856C124.173 36.088 123.709 34.92 123.709 33.352C123.709 32.648 123.805 31.768 123.997 30.712C124.221 29.656 124.461 28.536 124.717 27.352C125.005 26.168 125.277 24.984 125.533 23.8C125.821 22.616 126.061 21.512 126.253 20.488C126.445 19.432 126.541 18.552 126.541 17.848C126.541 17.112 126.397 16.504 126.109 16.024C125.821 15.512 125.309 15.256 124.573 15.256C123.613 15.256 122.813 15.656 122.173 16.456C121.533 17.256 121.005 18.232 120.589 19.384C120.205 20.536 119.901 21.656 119.677 22.744L116.941 37L108.349 37.864L113.341 12.52L120.349 11.656L119.629 16.264C120.493 14.6 121.677 13.4 123.181 12.664C124.717 11.928 126.397 11.56 128.221 11.56C130.301 11.56 131.933 12.008 133.117 12.904C134.301 13.8 134.893 15.24 134.893 17.224C134.893 18.056 134.797 19 134.605 20.056C134.413 21.112 134.173 22.232 133.885 23.416C133.629 24.568 133.373 25.704 133.117 26.824C132.861 27.912 132.637 28.936 132.445 29.896C132.253 30.824 132.157 31.608 132.157 32.248C132.157 32.92 132.301 33.48 132.589 33.928C132.909 34.376 133.453 34.632 134.221 34.696C133.869 35.816 133.149 36.632 132.061 37.144C131.005 37.688 129.885 37.96 128.701 37.96ZM144.776 37.96C143.016 37.96 141.576 37.576 140.456 36.808C139.336 36.008 138.504 34.92 137.96 33.544C137.448 32.136 137.192 30.488 137.192 28.6C137.192 26.2 137.544 23.976 138.248 21.928C138.984 19.848 139.992 18.04 141.272 16.504C142.584 14.936 144.104 13.72 145.832 12.856C147.592 11.992 149.48 11.56 151.496 11.56C152.264 11.56 153.016 11.608 153.752 11.704C154.52 11.8 155.176 11.976 155.72 12.232L163.208 13.72C162.728 16.28 162.216 18.952 161.672 21.736C161.16 24.52 160.568 27.4 159.896 30.376C159.864 30.664 159.816 31 159.752 31.384C159.688 31.768 159.656 32.104 159.656 32.392C159.656 32.968 159.816 33.496 160.136 33.976C160.488 34.424 161.032 34.664 161.768 34.696C161.512 35.464 161.096 36.088 160.52 36.568C159.944 37.048 159.272 37.4 158.504 37.624C157.768 37.848 157.016 37.96 156.248 37.96C155.256 37.96 154.344 37.736 153.512 37.288C152.68 36.84 152.12 36.152 151.832 35.224C151 36.056 149.992 36.712 148.808 37.192C147.624 37.704 146.28 37.96 144.776 37.96ZM147.56 34.936C148.52 34.936 149.288 34.6 149.864 33.928C150.472 33.224 150.952 32.376 151.304 31.384C151.656 30.392 151.912 29.432 152.072 28.504L154.376 15.448C153.896 15.096 153.4 14.84 152.888 14.68C152.408 14.52 151.976 14.44 151.592 14.44C150.664 14.44 149.848 14.808 149.144 15.544C148.44 16.28 147.832 17.272 147.32 18.52C146.84 19.736 146.44 21.08 146.12 22.552C145.832 23.992 145.624 25.464 145.496 26.968C145.368 28.44 145.304 29.784 145.304 31C145.304 31.992 145.448 32.904 145.736 33.736C146.024 34.536 146.632 34.936 147.56 34.936ZM163.112 14.248L154.904 13.72C155.224 12.024 155.496 10.424 155.72 8.92C155.944 7.384 156.088 5.992 156.152 4.744C156.152 4.232 156.136 3.752 156.104 3.304C156.104 2.856 156.072 2.408 156.008 1.96C156.584 1.608 157.272 1.336 158.072 1.144C158.904 0.919999 159.736 0.808 160.568 0.808C161.688 0.808 162.664 1.096 163.496 1.672C164.328 2.248 164.728 3.304 164.696 4.84C164.696 5.288 164.616 5.976 164.456 6.904C164.328 7.832 164.152 8.92 163.928 10.168C163.704 11.416 163.432 12.776 163.112 14.248ZM170.551 37.96C169.079 37.96 167.879 37.592 166.951 36.856C166.055 36.088 165.607 34.952 165.607 33.448C165.607 32.872 165.655 32.152 165.751 31.288C165.879 30.392 166.023 29.464 166.183 28.504C166.375 27.512 166.551 26.584 166.711 25.72C166.903 24.856 167.063 24.136 167.191 23.56L169.351 12.52L177.991 11.656L174.295 30.376C174.263 30.632 174.215 30.952 174.151 31.336C174.087 31.72 174.055 32.072 174.055 32.392C174.055 32.968 174.215 33.496 174.535 33.976C174.855 34.424 175.383 34.664 176.119 34.696C175.767 35.816 175.047 36.632 173.959 37.144C172.871 37.688 171.735 37.96 170.551 37.96ZM175.015 8.584C173.639 8.584 172.503 8.28 171.607 7.672C170.711 7.064 170.263 6.184 170.263 5.032C170.263 3.816 170.727 2.904 171.655 2.296C172.615 1.656 173.783 1.336 175.159 1.336C176.503 1.336 177.607 1.656 178.471 2.296C179.335 2.904 179.767 3.784 179.767 4.936C179.767 6.152 179.303 7.064 178.375 7.672C177.479 8.28 176.359 8.584 175.015 8.584Z" fill="#000" fill-opacity="0.92"/>
</svg>
