<svg width="438" height="500" viewBox="0 0 438 500" fill="none" xmlns="http://www.w3.org/2000/svg">
<g opacity="0.2">
<path d="M436.469 267.479C433.909 269.46 431.212 271.309 428.388 273.015C417.07 279.59 405.722 286.01 394.218 292.508C391.078 294.206 387.701 295.567 384.164 296.563C378.374 298.378 372.882 300.807 367.819 303.787C360.325 307.972 352.923 312.259 345.398 316.418C340.757 318.787 335.595 320.344 330.224 320.993C322.445 322.459 314.806 324.414 307.372 326.84C303.023 328.141 298.582 329.258 294.203 330.505C286.535 332.571 279.421 335.882 273.261 340.252C266.292 345.45 261.696 351.844 256.36 357.9C256.176 358.133 256.36 358.497 256.052 359.484C257.717 358.366 258.891 357.613 260.031 356.885C266.075 352.181 272.776 348.115 279.985 344.774C285.166 342.591 290.501 340.72 295.713 338.615C299.877 336.951 303.949 335.106 308.049 333.415C314.306 330.411 321.181 328.437 328.311 327.594C333.118 326.863 337.852 325.82 342.467 324.476C352.43 322.422 362.39 320.318 372.444 318.525C375.509 318.117 378.63 318.117 381.696 318.525C383.053 318.525 384.286 319.667 385.86 320.396C385.121 321.409 384.811 322.318 384.071 322.786C377.472 327.568 370.225 331.676 362.483 335.027C357.024 337.184 351.998 340.07 346.693 342.539C343.33 344.099 339.815 345.45 336.454 346.983C332.044 348.959 327.696 351.064 323.316 353.092C320.831 353.863 318.518 354.979 316.469 356.392C314.707 357.938 312.614 359.19 310.301 360.083C307.876 361.221 305.748 362.762 304.048 364.611C302.346 366.459 301.106 368.58 300.402 370.843C299.921 372.18 299.27 373.47 298.458 374.688C295.265 379.519 291.46 384.042 287.11 388.178C284.026 391.114 281.557 394.415 278.659 397.43C276.664 399.554 274.501 401.559 272.183 403.434C266.538 407.852 260.711 412.089 255.096 416.429C251.19 419.549 247.397 422.771 243.716 426.098C239.476 430.166 234.754 433.858 229.622 437.119C223.269 440.964 217.101 445.071 210.563 448.735C206.942 450.779 203.023 452.422 198.906 453.621C194.511 454.943 190.881 457.631 188.76 461.133C184.996 466.564 181.018 471.893 177.502 477.429C174.418 482.627 171.673 487.825 168.558 493.023C167.242 494.997 165.746 496.882 164.088 498.663C163.656 499.217 163.018 499.631 162.274 499.843C161.532 500.056 160.725 500.052 159.985 499.833C158.752 499.547 157.488 499.286 156.252 498.975C150.917 497.624 150.084 493.777 152.336 489.879C156.994 482.082 162.268 474.699 167.11 467.059C168.638 464.442 170.008 461.763 171.21 459.028C171.427 458.638 171.427 458.144 171.704 457.832C175.188 453.621 176.145 448.709 177.872 443.927C178.752 440.677 178.752 437.301 177.872 434.051C176.946 429.139 176.023 424.226 175.436 419.289C174.457 412.988 173.922 406.644 173.833 400.29C173.953 387.48 176.492 374.767 181.356 362.63C183.701 357.146 186.971 351.948 189.685 346.567C191.751 342.487 193.633 338.328 195.512 334.169C197.394 330.012 199.214 325.827 201.189 321.721C201.62 320.862 202.699 320.239 203.963 319.122C204.488 320.077 204.882 321.08 205.136 322.111C205.32 325.437 205.413 328.79 205.413 332.117C205.413 339.238 205.599 346.386 205.105 353.482C204.457 362.967 203.161 372.429 202.267 381.914C202.021 384.383 202.267 386.879 202.267 389.374C202.193 391.315 201.85 393.242 201.249 395.118C199.586 399.792 198.439 404.586 197.826 409.438C197.068 413.813 196.037 418.149 194.742 422.433C194.742 422.954 194.558 423.472 194.403 424.435C196.12 423.572 197.38 422.184 197.919 420.562C199.648 414.979 202.889 409.811 207.386 405.462C209.222 403.391 210.428 400.973 210.902 398.419C211.918 394.934 213.215 391.513 214.789 388.178C217.348 382.642 220.184 377.184 222.961 371.725C224.072 369.542 225.429 367.464 226.569 365.281C228.78 361.467 229.939 357.282 229.961 353.04C230.023 349.114 230.998 345.237 232.83 341.629C237.517 331.232 242.082 320.993 247.356 310.804C249.884 305.763 253.524 301.033 256.36 296.12C259.198 291.208 262.159 285.958 265.397 281.019C269.13 275.354 273.169 269.819 277.24 264.307C280.324 259.967 283.778 255.783 287.141 251.547C287.605 251.096 288.132 250.694 288.712 250.351C289.099 250.52 289.44 250.753 289.718 251.035C289.997 251.316 290.208 251.641 290.338 251.993C290.466 252.343 290.512 252.71 290.47 253.076C290.431 253.441 290.305 253.796 290.101 254.12C288.989 257.109 287.942 260.124 286.862 263.164C283.778 271.69 280.973 280.241 277.919 288.739C273.6 300.669 269.13 312.547 264.749 324.45C263.373 328.094 262.231 331.8 261.326 335.548C262.838 334.066 264.41 332.637 265.829 331.051C270.671 325.49 275.298 319.797 280.231 314.287C284.364 309.634 288.867 305.19 293.123 300.591C294.385 299.028 295.42 297.344 296.207 295.574C299.19 289.335 301.449 282.868 302.961 276.263C303.963 271.563 303.963 266.748 302.961 262.046C302.282 257.473 300.987 252.924 300.679 248.323C300.051 242.817 300.322 237.264 301.48 231.82C301.48 231.195 301.759 230.546 301.85 229.897C302.406 225.842 302.654 221.736 303.546 217.708C304.614 212.886 304.339 207.921 302.745 203.205C301.34 198.129 301.404 192.844 302.93 187.792C302.982 187.466 303.096 187.151 303.269 186.857C306.353 181.971 308.111 176.59 311.844 171.991C312.645 171.028 313.201 169.936 313.909 168.923C314.618 167.91 315.853 167.494 316.993 168.586C317.787 169.378 318.355 170.311 318.658 171.315C319.522 174.459 320.354 177.631 320.91 180.827C321.466 184.023 321.621 187.48 321.99 190.781C321.99 192.288 322.575 193.77 322.637 195.277C322.998 197.868 322.998 200.484 322.637 203.074C321.817 207.031 321.701 211.07 322.298 215.056C322.792 218.928 323.316 222.853 324.056 226.622C324.426 228.649 325.382 230.572 325.876 232.6C326.584 235.432 327.109 238.317 327.727 241.203C327.727 241.591 327.91 241.981 328.096 242.866C330.131 240.657 331.8 238.226 333.062 235.64C335.96 230.805 338.767 225.947 341.82 221.163C344.566 216.876 347.557 212.691 350.424 208.481C350.794 207.787 351.26 207.132 351.812 206.532C354.948 203.109 357.674 199.436 359.955 195.563C363.902 190.132 367.943 184.751 371.95 179.346C375.96 173.939 379.723 168.949 383.609 163.751C388.358 163.751 389.407 164.869 388.205 168.586C387.432 171.002 386.354 173.341 385.643 175.759C384.441 179.969 383.146 184.154 382.314 188.441C381.237 194.565 378.932 200.488 375.497 205.959C371.797 211.651 368.806 217.682 365.381 223.503C362.791 227.869 359.955 232.132 357.303 236.498C355.976 238.707 354.772 240.994 353.57 243.256C351.436 247.021 349.631 250.912 348.172 254.9C349.172 254.372 350.131 253.791 351.042 253.157C356.778 248.661 362.421 244.114 368.127 239.617C370.192 237.979 372.444 236.524 374.295 234.835C379.322 230.65 384.257 226.413 389.159 222.152C397.979 214.562 406.709 206.922 415.591 199.384C416.928 198.567 418.405 197.927 419.97 197.486C420.842 198.681 421.383 200.025 421.555 201.421C421.726 202.815 421.522 204.225 420.956 205.543C418.847 213.049 414.614 220.012 408.62 225.842C403.685 231.04 399.153 236.602 394.495 242.034C388.019 249.545 382.528 257.628 374.602 264.257C373.681 265.113 372.646 265.881 371.518 266.542C364.483 270.71 357.953 275.455 352.029 280.707C350.602 281.787 348.976 282.666 347.216 283.306C341.86 285.333 336.85 287.954 332.321 291.103C328.474 293.614 324.469 295.948 320.323 298.094C314.035 301.075 308.611 305.193 304.44 310.155C304.04 310.701 303.3 311.116 303.145 312.078C305.397 310.961 307.71 309.895 309.9 308.647C317.857 304.125 325.793 299.569 333.709 294.977C337.656 292.959 341.364 290.628 344.781 288.012C347.009 286.18 349.761 284.864 352.768 284.191C357.641 282.89 362.021 280.552 366.893 279.148C374.231 276.85 381.729 274.931 389.345 273.405C396.145 272.273 402.726 270.348 408.898 267.686C413.298 265.907 417.952 264.614 422.745 263.841C425.829 263.242 428.913 262.54 431.997 262.176C433.502 262.058 435.017 262.321 436.345 262.93C436.834 263.146 437.245 263.468 437.537 263.862C437.826 264.257 437.987 264.709 437.999 265.174C438.012 265.639 437.878 266.097 437.607 266.502C437.338 266.908 436.946 267.244 436.469 267.479ZM216.392 303.319C221.044 299.746 225.241 295.776 228.914 291.467C230.486 289.493 231.998 287.439 233.694 285.594C238.29 280.679 242.415 275.466 246.03 270C252.419 261.069 257.346 251.453 260.68 241.41C261.047 240.277 261.142 239.092 260.956 237.927C260.632 237.058 260.12 236.249 259.444 235.537C258.521 236.005 257.317 236.265 256.732 236.94C252.63 241.515 248.403 246.037 244.766 250.872C243.066 253.295 241.015 255.53 238.66 257.525C234.402 260.773 231.411 264.88 226.324 267.479C226.014 267.634 225.83 267.973 225.582 268.207C222.221 271.612 218.982 275.119 215.405 278.369C210.501 282.788 205.289 286.971 200.263 291.365C197.826 293.443 195.329 295.495 193.139 297.731C190.427 300.751 187.324 303.505 183.887 305.944C181.381 307.639 179.002 309.462 176.762 311.403C172.939 314.573 169.175 317.821 165.414 321.098C163.055 323.077 160.82 325.159 158.721 327.335C155.327 330.973 152.183 334.742 148.882 338.432C148.882 338.432 148.42 338.432 147.895 338.432C147.93 337.802 148.033 337.176 148.205 336.561C150.456 330.453 152.768 324.346 155.05 318.368C157.539 311.041 162.538 304.495 169.423 299.552C174.141 296.225 178.52 292.533 183.3 289.155C188.08 285.777 193.785 282.683 198.72 279.123C203.655 275.562 208.836 271.169 213.833 267.141C216.33 265.139 218.675 262.956 221.327 261.111C227.588 256.735 233.386 251.907 238.66 246.687C240.19 245.056 241.552 243.317 242.729 241.489C244.303 239.28 245.567 236.914 247.139 234.679C251.118 228.986 255.158 223.322 259.199 217.682C260.401 216.017 261.727 214.407 262.807 212.691C265.305 208.662 267.711 204.582 270.115 200.528C272.522 196.473 274.867 192.574 277.116 188.546C277.889 187.143 278.814 185.583 277.488 184.049C273.755 183.738 273.724 183.711 271.78 185.739C270.64 186.909 269.653 188.182 268.696 189.352C265.612 192.574 262.745 195.85 259.63 198.994C257.151 201.616 254.462 204.089 251.58 206.401C245.012 211.418 238.104 216.096 231.535 221.087C223.824 226.96 216.299 233.016 208.743 239.019C205.105 241.905 201.435 244.763 198.043 247.883C192.738 252.75 187.597 257.723 182.623 262.8C178.859 266.647 175.436 270.597 171.921 274.703C170.256 276.575 168.682 278.551 167.079 280.474L166.277 280.189C166.678 278.784 167.172 277.407 167.479 275.978C169.33 267.425 172.666 259.149 177.378 251.417C178.062 250.25 178.669 249.053 179.198 247.83C181.912 241.957 184.502 236.082 187.248 230.234C189.838 224.803 192.552 219.422 195.298 214.043C196.285 212.12 196.655 209.832 199.46 208.845C199.923 208.662 200.139 207.961 200.447 207.493C201.649 205.102 203.1 202.763 204.733 200.397C205.839 198.55 207.171 196.809 208.712 195.199C214.849 189.348 222.469 184.739 231.011 181.711C235.204 180.152 239.213 178.176 243.347 176.513C245.404 175.408 247.699 174.658 250.101 174.302C254.295 173.914 258.459 173.211 262.621 172.509C267.44 171.308 272.47 170.824 277.488 171.08C277.986 171.172 278.5 171.172 278.998 171.08C284.827 169.729 290.718 168.481 296.424 166.921C304.781 164.531 313.077 161.88 321.373 159.281C327.972 157.201 334.541 154.992 341.11 152.861C342.436 152.445 343.793 152.107 345.088 151.614C350.734 149.508 356.222 147.144 361.989 145.349C365.259 144.336 368.403 142.413 372.291 143.297C372.813 143.297 373.524 143.011 374.111 142.803C377.04 141.737 380 140.672 382.9 139.502C383.976 139.208 384.937 138.668 385.674 137.942C386.496 136.849 387.754 136.038 389.221 135.655C389.994 135.343 390.485 134.537 391.134 133.966C390.462 133.367 389.694 132.85 388.851 132.433C388.097 132.312 387.323 132.312 386.569 132.433C381.419 132.433 376.3 132.433 371.149 132.433C368.494 132.081 365.817 131.856 363.13 131.757C358.021 132.067 352.981 132.941 348.141 134.356C337.419 137.404 326.235 139.156 314.928 139.554C314.279 139.554 313.633 139.554 312.984 139.398C307.372 139.216 301.697 138.722 296.083 138.905C282.088 139.631 268.382 142.576 255.683 147.585L254.602 147.948C246.641 150.728 239.054 154.214 231.967 158.344C231.256 158.734 230.548 159.072 229.284 159.697C229.422 159.018 229.618 158.35 229.868 157.695C232.461 153.096 235.02 148.469 237.703 143.92C240.387 139.371 243.871 134.382 246.307 129.365C249.035 123.422 250.618 117.148 250.996 110.782C251.056 109.489 251.304 108.206 251.735 106.963C253.801 101.582 255.807 96.1768 258.18 90.9005C260.725 85.0044 262.192 78.8175 262.528 72.5506C262.518 71.2503 262.663 69.9534 262.96 68.6791C265.098 61.5348 268.021 54.5734 271.689 47.8869C274.094 43.4931 275.79 38.7895 277.858 34.1885C278.006 33.9013 278.083 33.5914 278.083 33.2781C278.083 32.9665 278.008 32.6549 277.86 32.3677C277.713 32.0804 277.496 31.821 277.225 31.6069C276.955 31.3928 276.635 31.2274 276.284 31.123C274.805 30.5764 274.001 31.6417 273.2 32.4477C271.504 34.0858 269.839 35.7222 268.019 37.2297C263.733 40.8175 259.044 44.092 255.127 47.9113C250.533 52.4078 246.555 57.3465 242.359 62.1546C238.639 66.1602 235.336 70.4303 232.492 74.9164C229.899 79.5156 227.894 84.3324 226.508 89.2885C223.423 99.1658 220.032 108.963 216.669 118.762C215.529 122.115 214.047 125.363 212.661 128.899C212.199 127.182 211.796 125.623 211.395 124.091C209.414 118.257 208.377 112.224 208.311 106.157C208.357 103.003 208.047 99.8517 207.386 96.7478C207.274 96.2447 207.032 95.7695 206.681 95.3517C206.33 94.9356 205.876 94.5875 205.351 94.3316C203.963 93.8633 203.099 95.0331 202.515 96.0202C202.011 96.7878 201.608 97.5973 201.311 98.4381C199.739 104.467 198.043 110.471 196.717 116.631C195.975 120.035 196.099 123.57 195.543 127.027C194.711 132.225 193.602 137.267 192.459 142.386C192.459 142.776 192.244 143.14 191.997 144.025L190.701 142.386C188.696 139.117 186.287 136.033 183.517 133.186C182.881 132.518 182.408 131.748 182.129 130.925C181.48 129.522 181.142 127.988 180.371 126.664C177.591 121.29 175.471 115.69 174.048 109.952C172.794 105.793 171.437 101.643 169.977 97.5016C167.481 89.9761 166.306 82.1825 166.492 74.3698C166.492 71.7708 166.122 68.9385 168.498 66.8077C166.647 64.3637 165.66 63.9215 164.519 65.2218C161.344 68.6478 158.959 72.5437 157.488 76.7094C156.001 82.0989 155.614 87.6626 156.346 93.1618C156.645 96.6329 156.046 100.118 154.588 103.375C152.165 108.533 151.47 114.152 152.584 119.62C154.125 125.858 155.668 132.095 157.796 138.229C159.429 143.271 161.681 148.157 163.747 153.434C159.029 150.626 154.712 148.236 150.516 145.637C142.406 140.567 132.845 138.8 123.254 137.162C115.241 136.107 107.377 134.365 99.7838 131.964C94.9109 130.276 89.8542 128.949 84.8573 127.572C83.87 127.287 81.9902 127.235 81.7734 127.572C81.2735 128.61 81.1329 129.747 81.3726 130.847C81.6039 131.693 82.0563 132.483 82.6988 133.16C84.4009 135.207 86.6648 136.875 89.2985 138.021C94.2024 140.386 99.2612 142.724 104.103 145.323C112.479 149.954 121.397 153.846 130.717 156.941C139.417 159.735 147.457 163.811 154.464 168.976C160.989 174.031 166.841 179.669 171.921 185.792C174.748 188.601 177.095 191.735 178.89 195.096C179.539 196.604 180.741 197.929 181.542 199.41C182.03 200.272 182.292 201.21 182.313 202.166C182.005 212.222 177.287 221.215 172.507 230.988C171.982 229.533 171.673 228.753 171.458 227.973C170.163 223.243 168.929 218.488 167.572 213.756C166.091 208.558 164.488 203.36 162.976 198.345C162.637 197.175 162.483 195.979 162.02 194.861C161.187 192.783 159.954 192.574 158.165 194.081C157.579 194.576 156.808 194.887 156.222 195.408C155.637 195.927 154.65 196.628 154.526 197.331C154.032 199.931 153.786 202.684 153.569 205.388C153.354 208.091 153.569 210.118 153.169 212.457C151.566 222.568 149.839 232.626 148.143 242.709C148.143 243.619 147.556 244.478 147.062 246.062L146.292 244.243C143.671 237.72 143.454 230.858 141.882 224.178C141.053 219.781 139.857 215.439 138.304 211.183C136.833 207.728 135.679 204.183 134.85 200.58C134.233 196.808 132.735 193.178 130.44 189.898C128.065 186.935 125.753 183.946 123.347 181.034C119.399 176.2 115.452 171.392 111.411 166.636C107.883 162.209 102.99 158.679 97.2554 156.423C96.0677 156.034 95.0101 155.411 94.1714 154.602C93.2481 153.69 92.0541 152.998 90.7093 152.602C89.3667 152.205 87.9208 152.114 86.5223 152.342C83.901 152.342 82.7607 154.316 84.2108 156.266C85.3428 157.699 86.6565 159.023 88.1273 160.216C90.6722 162.028 92.7689 164.244 94.2954 166.74C95.4356 168.923 96.5779 171.106 97.3793 173.368C98.3998 175.62 99.2343 177.93 99.8767 180.28C101.327 186.674 102.498 193.094 103.979 199.462C105.46 205.83 107.063 211.495 108.513 217.655C110.705 227.362 114.88 236.674 120.849 245.179C122.853 248.09 124.673 251.079 126.707 253.963C127.881 255.628 129.422 257.109 130.717 258.693C133.582 261.619 135.683 265.019 136.885 268.675C137.422 271.131 138.228 273.542 139.291 275.873C140.783 278.754 141.721 281.816 142.068 284.944C142.642 287.794 142.9 290.682 142.838 293.574C142.19 299.621 141.973 305.697 142.19 311.767C142.035 313.469 141.65 315.151 141.049 316.782C140.77 317.821 140.155 318.81 139.785 319.849C137.965 325.047 136.207 330.245 134.419 335.443C134.212 335.813 133.974 336.168 133.708 336.509C133.198 335.84 132.754 335.135 132.382 334.404C130.564 330.038 128.62 325.671 127.048 321.226C124.396 313.741 122.021 306.205 119.492 298.719C118.97 297.156 118.288 295.635 117.455 294.171C114.157 288.297 110.393 282.605 107.557 276.575C105.723 272.264 103.134 268.208 99.8767 264.542C93.0621 257.368 85.9377 250.403 78.9372 243.36C77.5491 241.957 76.316 240.397 74.7729 239.123C70.2698 235.432 65.5208 231.82 61.0486 228.233C58.2125 226.023 55.3123 223.893 52.4142 221.788C51.0881 220.825 49.576 220.956 49.3302 222.126C48.7126 224.958 46.7089 227.609 47.9731 230.677C48.3511 232.16 48.6197 233.66 48.7746 235.173C49.6401 239.943 50.8856 244.657 52.5071 249.286C54.9281 254.393 57.7498 259.36 60.9557 264.152C63.7629 268.649 67.1238 272.858 69.9 277.407C74.4031 285.204 78.6894 293.001 82.7298 301.033C85.0206 306.238 87.6563 311.332 90.6246 316.289C92.7832 319.486 94.4482 322.917 96.5469 326.113C98.5423 329.633 100.982 332.963 103.824 336.041C109.325 341.496 114.2 347.378 118.381 353.611C123.446 360.612 125.34 368.917 123.716 377.002C123.45 378.283 123.274 379.576 123.192 380.875C122.915 389.295 122.729 397.742 122.421 406.164C122.235 411.907 121.835 417.625 121.589 423.37C121.543 424.726 122.07 426.052 123.074 427.114C124.08 428.174 125.499 428.902 127.079 429.165C133.801 429.165 140.463 425.058 139.415 419.028C138.953 416.429 138.643 413.649 138.366 410.946C137.949 408.362 137.794 405.755 137.903 403.149C138.366 398.419 139.353 393.713 140.062 389.01C140.37 386.956 140.587 384.929 140.863 382.875C141.851 375.806 141.851 368.555 147.031 362.292C149.078 358.936 151.485 355.743 154.218 352.752C160.316 347.514 166.806 342.609 173.647 338.069C180.555 333.391 187.258 328.496 193.754 323.383C200.117 318.82 205.998 313.804 211.335 308.388C212.858 306.588 214.549 304.894 216.392 303.319Z" fill="white"/>
<path d="M388.782 231.957C387.454 231.348 385.94 231.085 384.434 231.203C381.35 231.567 378.266 232.269 375.182 232.868C370.389 233.64 365.736 234.934 361.336 236.713C355.163 239.375 348.582 241.3 341.782 242.432C334.166 243.958 326.668 245.877 319.331 248.174C314.52 249.579 310.078 251.917 305.206 253.218C302.208 253.895 299.469 255.211 297.249 257.039C293.832 259.655 290.124 261.986 286.177 264.004C278.241 268.596 270.304 273.151 262.368 277.674C260.179 278.922 257.865 279.988 255.613 281.105C255.613 280.143 256.508 279.728 256.909 279.182C261.079 274.22 266.504 270.102 272.791 267.123C276.937 264.975 280.943 262.641 284.789 260.13C289.319 256.981 294.328 254.36 299.684 252.333C301.444 251.693 303.07 250.814 304.497 249.734C310.329 244.458 316.763 239.678 323.71 235.467C324.838 234.803 325.87 234.037 326.794 233.179C334.72 226.604 340.21 218.468 346.686 210.958C351.342 205.525 355.938 200.015 360.811 194.765C366.803 188.935 371.036 181.972 373.147 174.467C373.711 173.147 373.915 171.737 373.744 170.343C373.575 168.949 373.031 167.603 372.16 166.409C370.594 166.851 369.117 167.49 367.78 168.306C358.898 175.844 350.171 183.484 341.35 191.074C336.447 195.338 331.512 199.573 326.486 203.758C324.511 205.446 322.26 206.902 320.318 208.54C314.613 213.036 308.967 217.585 303.231 222.082C302.322 222.713 301.363 223.295 300.364 223.822C301.822 219.836 303.625 215.943 305.761 212.178C306.964 209.917 308.166 207.631 309.492 205.42C312.144 201.107 314.982 196.845 317.573 192.425C320.995 186.604 323.987 180.574 327.688 174.883C331.121 169.412 333.427 163.488 334.503 157.365C335.337 153.076 336.632 148.893 337.835 144.682C338.543 142.264 339.624 139.926 340.394 137.508C341.596 133.791 340.394 132.778 335.8 132.674C331.913 137.872 328.027 143.07 324.141 148.268C320.256 153.466 316.092 159.054 312.144 164.487C309.866 168.359 307.139 172.033 304.003 175.454C303.452 176.056 302.985 176.711 302.615 177.404C299.746 181.615 296.755 185.798 294.01 190.087C290.926 194.869 288.152 199.73 285.251 204.564C284.08 207.184 282.494 209.657 280.534 211.919C280.348 211.034 280.255 210.644 280.164 210.254C279.546 207.37 279.021 204.485 278.313 201.653C277.819 199.625 276.863 197.702 276.493 195.675C275.754 191.828 275.229 187.878 274.735 184.109C274.138 180.123 274.254 176.084 275.074 172.127C275.435 169.537 275.435 166.921 275.074 164.33C275.074 162.823 274.58 161.341 274.427 159.834C274.058 156.533 273.903 153.18 273.347 149.88C272.791 146.579 271.959 143.512 271.095 140.366C270.757 139.395 270.168 138.499 269.369 137.743C268.259 136.65 267.179 136.833 266.285 138.081C265.39 139.327 265.02 140.185 264.219 141.146C260.517 145.54 258.697 150.997 255.675 155.936C255.502 156.23 255.388 156.545 255.337 156.871C253.81 161.921 253.746 167.208 255.151 172.284C256.704 176.989 256.948 181.935 255.861 186.734C254.967 190.763 254.719 194.869 254.165 198.924C254.165 199.573 253.949 200.222 253.794 200.847C252.635 206.291 252.364 211.844 252.992 217.35C253.302 221.951 254.597 226.5 255.275 231.073C256.276 235.775 256.276 240.59 255.275 245.29C253.765 251.895 251.503 258.362 248.52 264.601C247.733 266.371 246.698 268.054 245.436 269.618C241.181 274.217 236.678 278.661 232.546 283.314C227.611 288.824 222.984 294.516 218.142 300.078C216.785 301.664 215.058 303.093 213.639 304.575C214.544 300.827 215.686 297.121 217.064 293.477C221.443 281.574 225.916 269.696 230.233 257.766C233.317 249.268 236.184 240.717 239.177 232.19C240.255 229.151 241.305 226.136 242.414 223.147C242.618 222.823 242.744 222.468 242.786 222.102C242.825 221.737 242.78 221.37 242.652 221.02C242.521 220.668 242.313 220.342 242.034 220.062C241.755 219.78 241.412 219.547 241.026 219.378C240.447 219.721 239.919 220.123 239.454 220.574C236.093 224.809 232.699 228.994 229.553 233.334C225.484 238.845 221.443 244.381 217.711 250.046C214.627 254.984 211.729 260.13 208.676 265.147C205.623 270.163 202.198 274.79 199.669 279.831C194.551 290.02 189.831 300.338 185.144 310.655C183.311 314.264 182.336 318.141 182.277 322.066C182.252 326.309 181.093 330.494 178.883 334.308C177.742 336.491 176.385 338.569 175.274 340.752C172.5 346.211 169.662 351.669 167.102 357.204C165.572 360.542 164.314 363.964 163.339 367.446C162.769 369.992 161.467 372.384 159.546 374.411C155.049 378.761 151.808 383.929 150.079 389.51C149.538 391.134 148.28 392.52 146.563 393.384C146.563 392.421 146.778 391.902 146.902 391.382C148.197 387.099 149.226 382.761 149.986 378.387C150.6 373.535 151.746 368.741 153.409 364.067C154.01 362.192 154.351 360.263 154.427 358.322C154.611 355.723 154.242 353.333 154.427 350.863C155.322 341.377 156.617 331.916 157.264 322.43C157.757 315.335 157.542 308.187 157.573 301.065C157.573 297.739 157.573 294.386 157.295 291.059C157.04 290.029 156.648 289.026 156.123 288.07C154.859 289.266 153.779 289.889 153.347 290.669C151.374 294.776 149.585 298.961 147.673 303.119C145.76 307.276 143.911 311.435 141.844 315.516C139.129 320.897 135.861 326.095 133.517 331.578C128.768 343.731 126.341 356.444 126.33 369.239C126.421 375.593 126.956 381.936 127.935 388.238C128.52 393.175 129.445 398.087 130.371 403C131.251 406.25 131.251 409.625 130.371 412.875C128.737 417.659 127.78 422.57 124.203 426.781C123.926 427.093 123.926 427.587 123.709 427.977C122.507 430.712 121.137 433.393 119.609 436.007C114.767 443.649 109.493 451.109 104.835 458.827C102.46 462.751 103.416 466.624 108.752 467.923C109.985 468.236 111.251 468.496 112.484 468.781C113.224 469.001 114.029 469.004 114.773 468.792C115.517 468.579 116.155 468.165 116.585 467.612C118.245 465.831 119.739 463.945 121.057 461.971C124.141 456.773 126.793 451.575 130.001 446.377C133.517 440.841 137.495 435.515 141.259 430.082C143.378 426.579 147.01 423.891 151.405 422.57C155.522 421.371 159.441 419.727 163.062 417.685C169.6 414.019 175.768 409.888 182.122 406.067C187.263 402.808 191.995 399.116 196.247 395.046C199.907 391.719 203.699 388.497 207.626 385.378C213.239 380.933 219.068 376.698 224.711 372.383C227.027 370.532 229.19 368.553 231.189 366.457C234.087 363.442 236.585 360.141 239.64 357.204C243.99 353.068 247.795 348.546 250.988 343.717C251.8 342.496 252.451 341.207 252.93 339.87C253.637 337.607 254.876 335.486 256.576 333.638C258.278 331.789 260.406 330.248 262.831 329.11C265.144 328.217 267.237 326.965 268.999 325.419C271.048 324.006 273.362 322.89 275.844 322.119C280.226 320.091 284.574 317.986 288.984 316.01C292.345 314.476 295.861 313.126 299.221 311.566C304.526 309.097 309.554 306.211 315.013 304.054C322.755 300.703 330 296.595 336.602 291.813C337.341 291.345 337.649 290.436 338.39 289.423C336.816 288.693 335.583 287.654 334.226 287.551C331.161 287.144 328.039 287.144 324.974 287.551C314.92 289.344 304.958 291.449 294.997 293.503C290.38 294.847 285.648 295.89 280.841 296.621C273.711 297.464 266.834 299.438 260.579 302.444C256.446 304.133 252.377 305.978 248.243 307.642C243.032 309.747 237.696 311.618 232.515 313.801C225.306 317.142 218.605 321.208 212.561 325.912C211.421 326.718 210.248 327.472 208.583 328.511C208.769 327.524 208.583 327.16 208.89 326.927C214.133 320.975 218.853 314.476 225.699 309.278C231.838 304.876 238.942 301.528 246.609 299.429C250.988 298.181 255.43 297.063 259.778 295.763C267.212 293.338 274.851 291.383 282.63 289.915C288.001 289.266 293.163 287.71 297.804 285.342C305.33 281.184 312.731 276.894 320.225 272.709C325.29 269.729 330.78 267.302 336.571 265.485C340.109 264.489 343.484 263.128 346.624 261.431C358.128 255.063 369.476 248.436 380.796 241.937C383.626 240.266 386.334 238.452 388.906 236.506C389.383 236.271 389.776 235.935 390.044 235.529C390.315 235.124 390.449 234.666 390.436 234.201C390.424 233.736 390.263 233.284 389.974 232.888C389.683 232.495 389.272 232.173 388.782 231.957ZM306.625 256.128C307.519 255.011 309.893 254.777 311.589 254.126C309.114 258.353 305.749 262.167 301.659 265.381L300.95 265.017C302.638 261.965 304.532 258.997 306.625 256.128ZM296.23 263.067C297.557 260.781 298.883 258.442 302.677 257.869C300.364 261.431 298.205 264.888 295.83 268.265C295.421 268.674 294.917 269.007 294.351 269.243C293.783 269.48 293.163 269.616 292.531 269.644C293.764 267.487 294.966 265.276 296.23 263.067ZM292.87 263.276C291.517 266.225 289.918 269.092 288.09 271.853C287.071 273.23 284.696 273.905 282.938 274.894C283.384 272.433 284.518 270.096 286.243 268.077C287.97 266.058 290.242 264.411 292.87 263.276ZM322.322 211.008L323.092 211.322C322.138 213.089 321.334 214.908 320.225 216.52C319.114 218.13 319.393 220.496 315.598 221.483C318.312 217.792 319.545 214.049 322.322 211.008ZM316.771 224.291C322.26 220.515 327.413 216.406 332.191 211.997C334.751 209.891 337.217 207.682 339.717 205.499C340.549 204.745 341.319 203.939 342.801 202.64C341.319 202.64 340.425 202.64 340.024 202.797C337.828 204.294 335.765 205.927 333.856 207.682C331.233 210.342 328.167 212.671 324.759 214.596C325.961 212.126 327.132 209.657 328.397 207.215C328.785 206.658 329.31 206.179 329.94 205.81C334.817 202.285 339.305 198.398 343.354 194.194C348.105 189.826 353.069 185.591 357.973 181.199C360.625 178.859 363.308 176.572 366.023 174.284C366.64 173.765 367.349 173.349 368.613 172.439C367.88 175.867 366.235 179.11 363.802 181.926C360.162 187.124 356.215 192.322 352.205 197.233C350.171 199.834 347.704 201.965 345.422 204.329C344.957 204.7 344.513 205.091 344.096 205.499C339.624 210.697 335.151 215.895 330.803 221.093C327.742 224.828 324.125 228.218 320.039 231.177C313.439 235.985 307.302 241.209 300.826 246.122C299.347 247.107 297.732 247.936 296.016 248.59C293.795 249.414 291.632 250.342 289.538 251.372C285.406 253.762 281.459 256.388 277.419 258.884C275.906 259.819 274.335 260.677 272.791 261.483L272.021 260.781C273.655 258.753 275.105 256.623 276.925 254.673C281.637 249.134 287.524 244.376 294.289 240.639C301.012 236.814 307.218 232.377 312.793 227.408C314.018 226.282 315.348 225.238 316.771 224.291ZM313.995 218.65C311.529 222.289 311.619 227.356 305.668 229.046C307.889 225.33 308.783 220.755 313.995 218.65ZM302.429 227.408C301.597 229.515 300.919 231.256 300.209 232.97C300.025 233.465 299.932 234.14 299.5 234.401C296.185 236.828 292.553 238.929 288.674 240.665C292.314 235.077 295.954 230.397 302.429 227.408ZM272.453 196.22H273.285C274.365 200.638 275.475 205.032 276.369 209.45C276.894 211.515 277.253 213.607 277.449 215.714C277.743 217.451 277.606 219.221 277.049 220.912C275.268 224.86 273.101 228.676 270.571 232.321C270.432 231.111 270.432 229.893 270.571 228.683C271.168 226.111 271.23 223.474 270.757 220.886C270.263 217.143 270.17 213.348 269.862 209.579C269.868 208.836 269.765 208.092 269.555 207.37C268.197 203.135 270.819 199.858 272.453 196.351V196.22ZM271.281 190.867C272.021 193.466 269.955 194.686 268.875 196.325C268.991 194.34 269.831 192.434 271.281 190.867ZM270.418 184.005C271.374 186.266 270.418 187.852 267.673 189.203L270.418 184.005ZM262.029 227.696C261.166 221.483 260.364 215.245 260.024 209.008C259.809 201.013 260.364 193.015 261.691 185.096C261.893 181.441 261.821 177.778 261.474 174.129C261.474 169.685 261.474 165.241 261.691 160.821C261.75 160.286 261.75 159.747 261.691 159.211C260.734 155.285 262.769 152.011 264.775 148.684C265.822 146.917 266.716 145.072 267.673 143.253H268.474C269.154 147.229 269.862 151.205 270.449 155.208C271.236 159.261 271.75 163.347 271.99 167.45C272.438 171.858 271.721 176.297 269.893 180.445C269.786 180.758 269.619 181.058 269.4 181.328C264.804 185.591 264.775 190.684 265.452 195.987C265.822 199.002 265.638 202.043 265.853 205.056C266.07 208.072 266.471 210.853 266.778 213.738C267.086 216.622 267.487 219.3 267.611 222.108C267.611 224.472 267.365 226.837 267.427 229.228C267.427 232.452 267.828 235.674 267.949 238.922C268.028 239.867 267.871 240.814 267.487 241.704C265.113 246.018 262.585 250.281 260.086 254.542C259.945 254.772 259.745 254.971 259.499 255.124C259.253 255.277 258.968 255.38 258.667 255.427C258.846 254.548 259.094 253.679 259.408 252.828C262.637 244.743 263.535 236.13 262.029 227.696ZM212.499 267.694C214.906 263.145 217.217 258.572 219.717 254.05C221.134 251.451 222.801 249.059 224.373 246.616C227.457 242.12 230.541 237.65 233.625 233.179C234.447 231.795 235.484 230.51 236.709 229.358C236.568 230.235 236.361 231.102 236.093 231.957C231.189 245.654 226.161 259.3 221.196 272.892C219.192 278.376 217.618 284.016 215.49 289.473C212.807 296.362 209.754 303.146 206.794 309.98C205.191 313.644 203.464 317.258 201.797 320.897C201.584 321.532 201.241 322.129 200.781 322.663C197.172 326.147 196.123 330.746 193.501 334.672C190.88 338.595 188.597 342.469 186.1 346.418C185.35 347.567 184.295 348.556 183.016 349.303C183.834 346.777 184.865 344.302 186.1 341.896C187.837 339.128 189.273 336.231 190.386 333.242C191.589 329.942 193.47 326.796 194.951 323.574C196.74 319.857 198.56 316.167 200.349 312.45C202.09 308.203 204.152 304.054 206.517 300.026C207.31 298.223 207.849 296.348 208.12 294.438C209.322 290.565 210.434 286.641 211.791 282.846C213.639 277.648 215.614 272.295 217.711 267.071C218.667 264.653 220.024 262.339 221.196 259.975L219.9 259.533L212.993 272.918C212.383 272.158 212.018 271.277 211.931 270.361C211.844 269.445 212.041 268.526 212.499 267.694ZM194.551 338.388L198.097 333.033C197.728 336.334 197.265 337.036 194.551 338.44V338.388ZM209.107 273.672C209.415 276.999 211.359 279.831 208.583 282.924C208.306 279.805 205.961 276.999 209.107 273.724V273.672ZM205.222 280.689C206.608 283.055 205.222 285.29 205.561 287.421C206.162 289.761 205.947 292.198 204.943 294.438C203.958 291.696 203.255 288.887 202.846 286.044C203.257 284.155 204.061 282.341 205.222 280.689ZM174.165 351.643C177.866 344.859 181.998 338.231 185.361 331.345C186.873 327.78 187.908 324.084 188.445 320.324C190.182 313.547 192.597 306.904 195.66 300.468C196.833 297.61 198.281 294.828 199.669 292.022C200.078 291.366 200.553 290.739 201.088 290.15C201.983 293.451 202.815 296.336 203.555 299.22C203.522 299.758 203.342 300.284 203.032 300.754C199.607 308.213 196.309 315.725 192.762 323.158C190.541 327.861 187.982 332.462 185.637 337.14C184.187 340.025 182.83 342.963 181.473 345.874C178.761 351.954 174.898 357.624 170.031 362.664C169.982 361.792 170.064 360.918 170.279 360.065C171.481 357.152 172.593 354.294 174.165 351.538V351.643ZM147.456 349.954C145.915 347.355 147.456 344.756 151.744 341.922C152.884 345.665 149.185 347.277 147.456 349.85V349.954ZM152.639 334.724C152.639 335.918 152.639 337.114 152.639 338.388L148.105 340.545L147.58 340.155L151.744 334.593L152.639 334.724ZM111.714 465.221L108.63 461.738C110.233 459.607 112.298 459.398 115.32 459.893L111.714 465.221ZM249.355 313.437C252.341 309.271 257.02 306.159 262.523 304.677C264.058 304.133 265.551 303.508 266.995 302.808C270.678 301.239 274.65 300.211 278.745 299.767C283.648 299.039 288.521 298.129 293.332 297.168C303.51 294.88 313.625 292.386 323.834 290.15C325.54 290.034 327.259 290.149 328.921 290.488L329.107 291.423C328.442 291.87 327.742 292.279 327.009 292.645C316.246 297.323 305.42 301.95 294.751 306.679C292.839 307.538 291.174 308.81 289.354 309.773C285.962 311.54 282.568 313.228 279.145 314.971C276.4 316.348 273.471 317.57 270.85 319.077C260.771 324.885 249.974 329.755 238.652 333.606C235.114 334.858 231.664 336.282 228.32 337.868C221.751 341.039 215.459 344.625 208.769 347.614C202.076 350.603 195.567 352.812 188.228 355.645C188.783 354.605 188.936 353.723 189.554 353.307C195.722 349.122 202.167 344.885 208.707 340.961C212.005 338.959 215.831 337.582 219.347 335.763L240.935 325.108C242.6 324.302 244.327 323.574 246.023 322.794C252.356 319.901 258.666 317.006 264.958 314.113C265.793 313.676 266.594 313.197 267.365 312.683L266.995 312.086L245.221 320.117C246.793 317.465 248.088 315.464 249.355 313.437ZM189.246 376.386C184.681 380.31 179.438 383.689 174.566 387.38C171.05 389.979 167.565 392.76 164.204 395.567C161.674 397.671 159.3 399.933 156.863 402.142C156.524 402.479 156.247 402.895 155.937 403.259C155.63 402.922 155.353 402.558 155.074 402.22C159.575 394.569 164.729 387.202 170.494 380.18C170.911 379.774 171.304 379.349 171.667 378.907C174.733 374.153 178.932 369.984 184.003 366.666C191.991 360.909 200.51 355.693 209.477 351.072C214.722 348.824 220.117 346.836 225.637 345.12C230.109 343.456 234.519 341.715 238.929 339.922C241.057 339.09 243.187 338.179 245.314 337.323L245.715 337.894L234.612 345.068L207.688 362.455C201.15 366.718 194.987 371.373 189.246 376.386ZM188.69 385.092C188.383 383.896 188.104 382.909 187.765 381.558L195.97 374.801C196.247 379.946 191.805 382.051 188.69 385.092ZM185.237 384.286C183.417 387.223 182.584 390.732 178.606 392.499C180.796 389.848 180.826 385.794 185.237 384.286ZM231.189 320.74C231.652 320.221 232.453 319.779 232.606 319.232C233.348 316.036 236.525 315.23 239.423 314.034C242.321 312.84 244.82 312.112 247.535 311.15L248.088 311.618C243.957 315.88 240.904 320.844 235.752 324.456C236.925 320.949 240.286 318.324 241.519 314.893C241.315 314.741 241.1 314.602 240.873 314.476C240.388 314.691 239.941 314.962 239.547 315.282C236.678 318.452 233.81 321.65 231.003 324.846C230.379 325.534 229.882 326.297 229.522 327.108C228.876 328.537 227.58 328.953 225.606 329.343C226.897 326.237 228.783 323.332 231.189 320.74ZM219.779 329.291C220.977 327.734 222.009 326.091 222.863 324.378C223.972 321.208 226.994 320.038 230.417 318.999L218.698 333.242L217.866 332.852C218.421 331.656 219.068 330.461 219.779 329.291ZM220.733 324.873L215.213 331.813C214.505 332.722 213.856 333.658 213.117 334.412C212.695 335.067 212.119 335.643 211.421 336.101C201.909 341.032 193.262 347.059 185.73 354.008C184.774 354.867 184.156 355.958 183.324 356.867C181.597 358.738 179.839 360.61 178.05 362.429C176.261 364.248 174.565 364.899 174.966 367.289C174.966 368.121 173.702 369.082 173.024 369.888L170.217 373.371C167.904 376.36 165.838 379.478 163.248 382.286C160.593 385.48 158.329 388.894 156.493 392.473C152.965 398.698 148.84 404.671 144.157 410.329C143.603 410.94 143.157 411.613 142.831 412.331C142.645 412.747 142.831 413.579 143.046 413.734C143.68 414.045 144.423 414.155 145.144 414.045C145.698 414.045 146.132 413.396 146.623 413.006C149.313 410.882 151.827 408.607 154.149 406.196C157.786 402.69 161.746 399.431 165.991 396.451C169.569 393.721 173.425 391.253 177.866 388.159C177.784 388.892 177.608 389.617 177.342 390.316C175.966 392.115 174.78 394.01 173.795 395.983C172.903 398.256 171.188 400.237 168.891 401.649C163.863 404.976 158.776 408.224 153.717 411.525C153.374 411.821 153.064 412.143 152.791 412.487C155.074 412.747 156.307 411.577 157.664 410.771C163.248 407.522 168.767 404.17 174.289 400.869C174.503 400.869 174.811 400.686 174.935 400.531C178.019 396.061 183.171 393.488 187.271 389.9C190.355 387.301 193.439 384.417 196.709 381.87C199.977 379.323 202.877 377.633 205.961 375.398C209.971 372.356 213.825 369.186 217.618 365.99C218.766 364.899 219.799 363.724 220.702 362.481C218.39 361.987 217.618 363.104 216.663 363.884L200.008 377.426C199.638 377.737 199.238 378.023 198.56 378.517C198.56 376.489 198.56 375.034 198.312 373.086C214.34 361.221 231.075 350.055 248.46 339.635C247.245 342.533 245.112 345.095 242.292 347.043C238.307 350.128 234.951 353.747 232.36 357.751C229.768 360.973 226.849 364.001 223.633 366.795C220.733 369.394 217.465 371.552 214.381 374.021C209.508 377.868 204.79 381.818 199.855 385.665C192.514 391.227 185.299 396.944 177.557 402.089C171.347 406.631 164.388 410.388 156.894 413.239C155.233 413.849 153.661 414.616 152.207 415.527C147.117 418.277 141.689 420.552 136.014 422.311C135.182 423.221 134.349 424.13 133.362 425.273L134.75 427.43C128.83 436.944 122.97 446.403 116.895 456.202H111.528C111.817 455.455 112.168 454.726 112.577 454.019C116.771 448.457 121.212 443.024 125.128 437.334C126.987 434.12 128.634 430.823 130.063 427.456C130.484 426.25 131.245 425.146 132.282 424.241C133.318 423.336 134.599 422.657 136.014 422.258C135.657 422.284 135.295 422.284 134.936 422.258C134.535 422.112 134.143 421.947 133.765 421.766C134.225 420.258 134.812 418.646 135.244 417.034C135.653 415.596 135.95 414.138 136.138 412.668C136.477 409.472 136.756 406.248 136.94 403.026C136.94 401.102 136.94 399.153 136.94 397.231C137.053 396.618 137.239 396.017 137.495 395.436V395.229C135.029 392.63 135.706 389.355 135.43 386.393C135.06 382.208 135.213 377.971 135.43 373.761C135.43 366.197 135.43 358.634 136.138 351.098C136.423 346.439 137.355 341.824 138.914 337.349C143.508 324.925 148.629 312.631 153.686 299.974C154.77 301.927 155.146 304.106 154.766 306.237C154.489 314.034 154.027 321.572 153.655 329.238C153.655 330.696 153.409 331.837 151.434 332.643C150.542 332.955 149.986 333.97 149.276 334.672L148.536 334.437C148.906 332.722 149.369 331.007 149.647 329.238C149.924 327.472 150.017 325.835 150.201 324.04C148.197 323.626 147.704 324.587 147.518 325.757C146.84 329.863 146.039 333.918 145.545 338.024C144.496 346.316 143.756 354.632 142.614 362.897C141.874 368.276 140.641 373.579 139.747 378.933C138.485 384.26 137.774 389.669 137.619 395.098V395.229L140.703 392.863C140.358 387.886 141.015 382.894 142.645 378.101C144.488 370.906 145.611 363.595 146.008 356.244C146.008 353.15 148.35 351.98 151.374 350.24C151.327 352.386 151.151 354.527 150.85 356.66C150.232 359.751 149.154 362.766 148.567 365.86C147.642 370.668 147.055 375.502 146.161 380.31C145.669 382.909 144.775 385.508 144.095 388.107C143.601 390.005 143.17 391.902 142.707 393.8C141.812 397.621 140.765 401.414 140.024 405.261C139.623 407.366 140.302 407.703 142.461 407.522C145.297 402.869 147.89 398.399 150.757 394.059C154.18 388.861 157.85 383.663 161.428 378.465C162.473 376.465 164.202 374.773 166.394 373.605C166.768 373.41 167.088 373.147 167.334 372.839C167.577 372.529 167.741 372.179 167.811 371.812C168.366 366.614 171.636 362.3 175.183 357.594C176.261 359.882 173.764 361.13 174.411 363.261C187.044 348.262 202.727 335.267 220.733 324.873ZM222.953 302.782C222.953 303.222 223.325 303.795 222.953 304.054C221.516 305.872 219.94 307.607 218.235 309.252C212.574 314.677 207.612 320.594 203.433 326.901C202.359 328.326 201.119 329.658 199.731 330.877C204.54 321.814 210.607 313.265 217.804 305.407C219.838 305.718 220.363 304.34 221.165 303.274H218.081L222.276 299.168C222.91 298.644 223.499 298.078 224.034 297.479C230.202 289.682 236.833 282.378 243.432 274.971C244.604 273.646 246.516 272.762 247.811 271.515C249.09 270.189 250.274 268.799 251.358 267.356C250.619 269.978 249.162 272.417 247.103 274.478C245.031 276.565 243.164 278.79 241.519 281.131C243.308 282.066 244.604 281.702 245.314 280.768C246.95 278.322 249.35 276.299 252.253 274.92C252.562 274.725 252.79 274.452 252.899 274.14C254.006 272.325 254.886 270.417 255.523 268.448C256.508 264.03 259.902 260.651 262.153 256.804C264.403 252.958 267.58 249.682 268.844 245.499C269.154 244.51 270.449 243.73 271.189 242.9C271.203 241.227 271.44 239.563 271.897 237.935C273.502 234.323 275.475 230.787 277.356 227.253C277.491 227.031 277.683 226.836 277.916 226.682C278.152 226.529 278.424 226.423 278.714 226.369C280.717 226.369 281.242 225.252 281.18 224.029C280.81 217.637 284.481 212.283 287.689 206.928C293.084 197.832 298.945 188.917 304.65 179.951C305.1 179.171 305.627 178.422 306.224 177.715C312.194 170.548 317.664 163.094 322.598 155.39C325.36 151.243 328.853 147.474 332.962 144.214C332.375 146.137 331.881 148.061 331.235 149.958C330.586 151.856 329.816 152.998 329.446 154.557C327.773 160.354 325.395 165.989 322.353 171.374C319.68 175.706 317.61 180.285 316.185 185.018C315.6 186.903 314.718 188.712 313.563 190.399C309.771 197.157 305.914 203.862 302.091 210.618C298.023 218.347 293.334 225.833 288.059 233.022C283.248 239.286 278.22 245.42 273.101 251.503C271.651 253.244 268.875 254.309 267.89 256.128C267.111 258.099 266.14 260.01 264.989 261.847C261.319 266.42 257.958 271.204 253.856 275.491C248.367 281.26 243.308 287.473 235.661 291.501C235.194 291.695 234.8 291.991 234.519 292.36C231.945 296.705 227.925 300.325 222.953 302.782ZM380.424 236.506C373.794 240.56 367.103 244.562 360.41 248.59C352.809 252.847 344.792 256.549 336.447 259.664C333.579 260.832 330.834 262.263 327.996 263.483C319.395 267.619 311.095 272.185 303.14 277.155C296.97 280.684 290.242 283.466 283.155 285.419C278.9 286.589 274.365 287.031 269.986 287.837C263.093 289.162 256.392 291.113 250.001 293.658C244.727 295.66 239.609 297.948 234.581 300.078C233.932 300.338 233.255 300.547 231.805 301.039C232.259 300.305 232.763 299.593 233.317 298.908C233.81 298.388 234.612 298.076 234.951 297.531C238.404 292.125 244.973 289.994 250.619 286.874C257.28 283.21 263.88 279.441 270.48 275.674C274.673 273.256 278.807 270.788 283.617 267.875C283.355 268.685 282.994 269.47 282.537 270.215C281.182 271.644 279.955 273.155 278.869 274.737C276.987 277.732 273.872 280.043 270.108 281.236C263.94 283.835 257.772 286.121 251.604 288.565C251.234 288.72 250.988 289.162 250.278 289.863C251.116 289.964 251.97 289.964 252.808 289.863C257.557 288.253 262.306 286.589 267.055 284.926C269.154 284.199 271.281 283.471 273.44 282.794C279.238 280.975 283.463 276.973 288.86 274.659C293.241 272.631 297.492 270.41 301.597 268.006C302.38 267.659 303.196 267.363 304.034 267.123C304.712 266.862 305.668 266.784 306.007 266.343C308.29 263.431 312.175 262.444 315.476 261.145C319.393 259.533 323.216 257.766 327.132 256.154C329.169 255.322 331.297 254.725 333.456 253.971C332.745 251.917 332.53 251.658 330.186 252.542C326.455 253.919 322.846 255.634 319.207 257.22L311.374 260.339C311.413 259.455 311.599 258.579 311.929 257.74C313.295 254.877 315.893 252.556 319.207 251.242C325.067 249.268 330.927 247.344 336.94 245.758C340.795 244.745 344.928 244.303 348.876 243.392C351.706 242.755 354.478 241.948 357.171 240.976C360.594 239.754 363.895 238.377 367.287 237C368.615 236.582 369.974 236.245 371.358 235.985C374.196 235.345 377.032 234.721 379.871 234.114C380.674 233.994 381.49 233.924 382.306 233.907L382.583 234.401C381.934 235.15 381.211 235.855 380.424 236.506ZM270.571 168.618C270.788 169.269 271.25 169.84 271.065 170.178C270.079 172.258 268.999 174.284 267.98 176.312C267.456 177.195 267.179 178.702 265.39 177.949C263.601 177.195 264.25 176.051 264.928 175.09C266.471 172.881 267.241 170.125 270.571 168.618ZM168.798 272.345C173.45 268.773 177.647 264.803 181.32 260.494C182.892 258.52 184.404 256.466 186.1 254.621C190.696 249.706 194.821 244.493 198.436 239.027C204.825 230.096 209.752 220.48 213.086 210.437C213.453 209.304 213.548 208.119 213.363 206.954C213.038 206.085 212.526 205.276 211.853 204.564C210.927 205.032 209.723 205.291 209.138 205.967C205.036 210.542 200.812 215.064 197.172 219.899C195.482 222.32 193.441 224.555 191.097 226.552C186.84 229.8 183.848 233.907 178.761 236.506C178.451 236.661 178.267 237 178.019 237.234C174.658 240.639 171.42 244.146 167.842 247.396C162.938 251.814 157.726 255.998 152.701 260.391C150.263 262.47 147.766 264.524 145.576 266.758C142.864 269.778 139.761 272.532 136.324 274.971C133.818 276.666 131.439 278.489 129.2 280.43C125.376 283.6 121.612 286.848 117.851 290.124C115.492 292.104 113.257 294.186 111.158 296.362C107.764 300 104.62 303.769 101.319 307.459C101.319 307.459 100.857 307.459 100.332 307.459C100.367 306.829 100.47 306.202 100.642 305.588C102.893 299.479 105.205 293.373 107.488 287.395C109.977 280.068 114.976 273.522 121.86 268.578C126.578 265.252 130.958 261.56 135.737 258.182C140.517 254.803 146.223 251.71 151.157 248.15C156.092 244.588 161.273 240.196 166.27 236.168C168.767 234.166 171.112 231.983 173.764 230.138C180.025 225.762 185.823 220.934 191.097 215.714C192.628 214.083 193.989 212.343 195.166 210.516C196.74 208.307 198.004 205.941 199.576 203.706C203.555 198.013 207.595 192.349 211.636 186.708C212.838 185.044 214.164 183.434 215.244 181.717C217.742 177.689 220.148 173.609 222.553 169.554C224.959 165.5 227.304 161.601 229.553 157.573C230.326 156.169 231.251 154.61 229.925 153.076C226.192 152.764 226.161 152.738 224.218 154.766C223.077 155.936 222.09 157.209 221.133 158.378C218.049 161.601 215.182 164.877 212.067 168.021C209.589 170.642 206.899 173.116 204.018 175.428C197.449 180.445 190.541 185.122 183.972 190.113C176.261 195.987 168.736 202.043 161.18 208.045C157.542 210.932 153.872 213.79 150.48 216.91C145.175 221.777 140.034 226.75 135.06 231.827C131.296 235.674 127.873 239.624 124.358 243.73C122.693 245.602 121.119 247.577 119.516 249.501L118.714 249.215C119.115 247.811 119.609 246.434 119.916 245.004C121.767 236.452 125.103 228.176 129.815 220.443C130.499 219.277 131.106 218.079 131.635 216.857C134.349 210.984 136.94 205.109 139.685 199.261C142.275 193.83 144.989 188.449 147.735 183.07C148.722 181.146 149.092 178.859 151.897 177.872C152.36 177.689 152.577 176.988 152.884 176.519C154.087 174.129 155.537 171.79 157.171 169.424C158.276 167.577 159.608 165.836 161.149 164.226C167.286 158.375 174.906 153.765 183.448 150.738C187.641 149.178 191.65 147.203 195.784 145.54C197.841 144.435 200.136 143.684 202.539 143.329C206.732 142.941 210.896 142.238 215.058 141.536C219.878 140.335 224.908 139.851 229.925 140.107C230.423 140.199 230.937 140.199 231.435 140.107C237.264 138.756 243.156 137.508 248.861 135.948C257.218 133.558 265.514 130.907 273.81 128.308C280.41 126.228 286.978 124.019 293.547 121.888C294.873 121.472 296.23 121.134 297.526 120.641C303.171 118.535 308.659 116.171 314.427 114.376C317.697 113.363 320.841 111.439 324.728 112.324C325.251 112.324 325.961 112.038 326.548 111.829C329.477 110.764 332.437 109.699 335.337 108.529C336.414 108.235 337.374 107.695 338.111 106.969C338.934 105.876 340.192 105.065 341.658 104.682C342.431 104.37 342.922 103.564 343.571 102.993C342.9 102.394 342.131 101.877 341.288 101.459C340.535 101.339 339.76 101.339 339.006 101.459C333.856 101.459 328.738 101.459 323.586 101.459C320.931 101.108 318.254 100.883 315.567 100.784C310.459 101.094 305.418 101.968 300.579 103.383C289.856 106.431 278.672 108.182 267.365 108.581C266.716 108.581 266.07 108.581 265.421 108.424C259.809 108.243 254.134 107.749 248.52 107.932C234.525 108.658 220.82 111.603 208.12 116.611L207.04 116.975C199.079 119.755 191.491 123.24 184.404 127.371C183.694 127.761 182.985 128.099 181.721 128.724C181.859 128.045 182.055 127.377 182.305 126.722C184.898 122.123 187.457 117.496 190.141 112.947C192.824 108.398 196.309 103.409 198.744 98.3921C201.473 92.449 203.055 86.1752 203.433 79.8091C203.493 78.5156 203.741 77.2327 204.172 75.9897C206.238 70.6089 208.244 65.2037 210.617 59.9273C213.162 54.0312 214.629 47.8444 214.966 41.5775C214.955 40.2771 215.1 38.9802 215.397 37.706C217.535 30.5617 220.458 23.6002 224.127 16.9138C226.531 12.52 228.227 7.81633 230.295 3.21539C230.444 2.92815 230.52 2.6183 230.52 2.30496C230.52 1.99335 230.446 1.68174 230.297 1.39451C230.15 1.10728 229.933 0.847891 229.663 0.633772C229.392 0.419653 229.072 0.254276 228.721 0.149828C227.242 -0.396784 226.438 0.668591 225.637 1.47458C223.941 3.11268 222.276 4.74905 220.456 6.25659C216.17 9.84439 211.481 13.1188 207.564 16.9381C202.97 21.4346 198.992 26.3733 194.796 31.1814C191.076 35.187 187.773 39.4572 184.929 43.9432C182.336 48.5424 180.331 53.3593 178.945 58.3153C175.861 68.1927 172.469 77.9899 169.106 87.7889C167.966 91.1417 166.485 94.39 165.099 97.9256C164.636 96.2092 164.233 94.6494 163.832 93.1175C161.851 87.284 160.814 81.2504 160.748 75.1837C160.794 72.0294 160.484 68.8785 159.823 65.7747C159.711 65.2716 159.47 64.7963 159.119 64.3785C158.767 63.9625 158.313 63.6143 157.788 63.3584C156.4 62.8902 155.537 64.06 154.952 65.047C154.448 65.8147 154.045 66.6242 153.748 67.465C152.176 73.4934 150.48 79.4975 149.154 85.6582C148.412 89.0614 148.536 92.597 147.98 96.0542C147.148 101.252 146.039 106.294 144.896 111.413C144.896 111.803 144.682 112.167 144.434 113.051L143.139 111.413C141.133 108.144 138.724 105.059 135.954 102.213C135.318 101.545 134.845 100.775 134.566 99.9519C133.918 98.5488 133.579 97.0152 132.808 95.6904C130.028 90.3166 127.909 84.7164 126.485 78.9787C125.232 74.8199 123.874 70.6698 122.414 66.5284C119.919 59.0029 118.743 51.2094 118.929 43.3966C118.929 40.7976 118.559 37.9653 120.935 35.8346C119.084 33.3905 118.097 32.9483 116.956 34.2487C113.782 37.6746 111.396 41.5705 109.925 45.7363C108.438 51.1258 108.051 56.6894 108.783 62.1886C109.082 65.6598 108.483 69.1449 107.025 72.4019C104.602 77.5599 103.908 83.1792 105.021 88.6471C106.562 94.8844 108.105 101.122 110.233 107.256C111.867 112.298 114.118 117.184 116.184 122.46C111.466 119.653 107.149 117.262 102.953 114.663C94.8437 109.594 85.2817 107.827 75.6909 106.189C67.6783 105.134 59.8143 103.392 52.221 100.991C47.3481 99.3026 42.2913 97.9761 37.2945 96.5991C36.3071 96.3136 34.4274 96.2614 34.2106 96.5991C33.7107 97.6366 33.5701 98.7734 33.8097 99.8736C34.0411 100.72 34.4935 101.51 35.136 102.187C36.8381 104.234 39.102 105.902 41.7357 107.047C46.6396 109.413 51.6984 111.751 56.5403 114.35C64.9165 118.981 73.8338 122.873 83.1541 125.968C91.8546 128.762 99.8942 132.837 106.901 138.002C113.426 143.058 119.278 148.696 124.358 154.819C127.186 157.628 129.532 160.762 131.327 164.123C131.976 165.631 133.178 166.955 133.98 168.437C134.467 169.299 134.729 170.237 134.75 171.193C134.442 181.249 129.724 190.242 124.944 200.015C124.42 198.56 124.11 197.78 123.895 197C122.6 192.27 121.367 187.514 120.01 182.783C118.528 177.585 116.925 172.387 115.413 167.371C115.075 166.202 114.92 165.006 114.457 163.888C113.625 161.81 112.391 161.601 110.603 163.108C110.016 163.603 109.245 163.914 108.659 164.435C108.074 164.954 107.087 165.655 106.963 166.358C106.469 168.957 106.223 171.711 106.006 174.415C105.792 177.118 106.006 179.145 105.606 181.484C104.003 191.595 102.276 201.653 100.58 211.736C100.58 212.646 99.9933 213.505 99.4996 215.089L98.7292 213.27C96.1079 206.747 95.891 199.885 94.319 193.205C93.4907 188.808 92.2947 184.466 90.7413 180.21C89.2705 176.754 88.1159 173.21 87.2875 169.607C86.6699 165.834 85.1723 162.205 82.8773 158.925C80.5018 155.962 78.1903 152.973 75.7838 150.061C71.8364 145.227 67.889 140.419 63.8486 135.663C60.3205 131.236 55.4269 127.706 49.6926 125.449C48.5049 125.061 47.4473 124.438 46.6086 123.629C45.6853 122.716 44.4913 122.025 43.1465 121.628C41.8039 121.231 40.358 121.141 38.9595 121.369C36.3382 121.369 35.1979 123.343 36.648 125.293C37.78 126.725 39.0937 128.05 40.5645 129.243C43.1094 131.055 45.206 133.271 46.7326 135.767C47.8728 137.95 49.0151 140.133 49.8165 142.394C50.837 144.647 51.6715 146.957 52.3139 149.307C53.764 155.701 54.9352 162.121 56.4163 168.489C57.8974 174.857 59.5004 180.522 60.9504 186.682C63.1421 196.389 67.3168 205.701 73.2865 214.206C75.2902 217.117 77.11 220.106 79.1447 222.99C80.318 224.654 81.8589 226.136 83.1541 227.72C86.0191 230.646 88.1199 234.046 89.3222 237.702C89.8592 240.158 90.6648 242.569 91.7286 244.9C93.22 247.781 94.1579 250.843 94.505 253.971C95.0792 256.821 95.3374 259.709 95.2754 262.6C94.6268 268.648 94.4099 274.723 94.6267 280.794C94.4718 282.496 94.0876 284.18 93.4865 285.809C93.2076 286.848 92.5921 287.837 92.2223 288.876C90.4025 294.074 88.6447 299.272 86.8558 304.47C86.6493 304.839 86.4116 305.194 86.1451 305.536C85.6349 304.867 85.1909 304.162 84.8191 303.431C83.0013 299.065 81.0574 294.697 79.4855 290.253C76.8332 282.768 74.4578 275.232 71.9294 267.746C71.4068 266.183 70.7251 264.662 69.8926 263.198C66.5938 257.324 62.8302 251.632 59.994 245.602C58.1597 241.291 55.5714 237.235 52.3139 233.569C45.4993 226.395 38.3749 219.43 31.3744 212.387C29.9863 210.984 28.7531 209.424 27.2101 208.15C22.707 204.459 17.958 200.847 13.4858 197.259C10.6497 195.05 7.74951 192.92 4.8514 190.815C3.52525 189.852 2.01323 189.983 1.76742 191.153C1.14979 193.985 -0.853859 196.636 0.410321 199.703C0.788335 201.187 1.05687 202.687 1.2118 204.2C2.0773 208.97 3.32278 213.684 4.94432 218.313C7.36526 223.42 10.187 228.387 13.3929 233.179C16.2001 237.676 19.561 241.885 22.3372 246.434C26.8403 254.231 31.1266 262.028 35.167 270.06C37.4578 275.265 40.0935 280.358 43.0618 285.316C45.2204 288.512 46.8854 291.943 48.9841 295.14C50.9795 298.659 53.419 301.99 56.2614 305.067C61.7622 310.523 66.6371 316.407 70.818 322.637C75.883 329.639 77.7772 337.944 76.1536 346.029C75.8872 347.31 75.7116 348.603 75.629 349.902C75.3522 358.322 75.1662 366.768 74.8584 375.19C74.6725 380.933 74.2719 386.652 74.0261 392.397C73.9806 393.753 74.5073 395.079 75.5113 396.141C76.5172 397.201 77.9363 397.929 79.5165 398.192C86.2381 398.192 92.8998 394.085 91.8525 388.055C91.3898 385.456 91.08 382.676 90.8032 379.973C90.3859 377.389 90.231 374.781 90.3405 372.175C90.8032 367.446 91.7907 362.74 92.4992 358.037C92.807 355.982 93.0239 353.956 93.3007 351.902C94.288 344.833 94.288 337.582 99.4686 331.319C101.516 327.962 103.922 324.77 106.655 321.779C112.753 316.541 119.243 311.635 126.085 307.095C132.992 302.418 139.695 297.523 146.192 292.41C152.554 287.847 158.435 282.83 163.772 277.415C165.295 275.615 166.987 273.921 168.829 272.345H168.798ZM149.862 266.187L150.048 265.797C153.626 262.703 157.264 259.69 160.717 256.544C167.288 250.514 174.596 245.083 180.702 238.689C184.125 235.103 188.352 232.088 192.175 228.813L192.977 229.358C190.355 232.451 187.796 235.569 185.175 238.637C182.553 241.704 180.672 244.303 178.205 246.902C175.121 250.021 172.037 252.958 168.953 256.024C165.869 259.091 163.339 261.873 160.502 264.783C159.3 266.03 158.065 267.382 155.723 265.953C154.952 267.668 152.238 268.552 153.748 270.605C152.453 271.644 151.744 273.386 149.061 273.386C149.862 272.034 150.48 270.788 151.22 269.747C151.455 269.447 151.616 269.111 151.69 268.756C151.763 268.403 151.748 268.039 151.647 267.689C151.546 267.341 151.36 267.012 151.1 266.726C150.841 266.441 150.513 266.204 150.139 266.03L149.893 266.265C148.753 268.629 147.611 270.969 146.44 273.308C146.44 273.489 145.791 273.489 145.452 273.594L145.297 273.853C144.928 275.101 144.558 276.452 144.219 277.622L143.294 277.31C143.971 276.167 144.62 274.997 145.297 273.853C145.297 273.853 145.297 273.594 145.297 273.489C144.835 270.11 147.58 268.265 149.893 266.187H149.862ZM139.007 276.271C139.501 275.334 140.796 274.685 141.722 273.931L142.523 274.4L137.464 283.288L136.293 282.977C137.188 280.689 137.927 278.402 139.038 276.271H139.007ZM134.688 278.87C134.176 282.705 132.439 286.352 129.662 289.423C130.063 288.408 130.433 287.369 130.895 286.355C131.358 285.342 131.976 284.12 130.249 283.081L134.688 278.87ZM173.826 201.263C182.83 195.181 191.066 188.268 199.948 182.107C205.249 178.363 210.198 174.279 214.751 169.892C216.571 168.151 218.143 166.202 220.086 164.513C218.733 168.294 216.285 171.734 212.962 174.519C209.878 177.118 206.455 179.717 203.247 182.316C201.396 183.824 199.607 185.356 197.85 186.916C190.386 193.569 182.954 200.274 175.522 206.928C175.026 207.288 174.499 207.619 173.948 207.917C173.948 206.695 173.948 205.915 173.948 204.538C169.509 207.527 169.509 212.542 164.851 215.714C166.764 209.917 168.304 204.98 173.826 201.263ZM152.732 218.078C153.946 217.131 155.245 216.26 156.617 215.479C156.617 215.479 156.617 215.298 156.617 215.193C158.497 212.995 160.864 211.123 163.587 209.683C162.665 215.04 159.622 219.977 154.952 223.692C155.754 221.639 156.524 219.768 157.264 217.87C157.633 216.857 158.158 215.792 156.617 215.271L156.431 215.402C154.396 219.637 152.391 223.848 150.263 228.086C149.565 229.617 148.301 230.921 146.654 231.802C146.687 229.973 147.282 228.181 148.381 226.604C148.937 225.641 150.017 224.472 149.707 223.666C149.03 220.912 151.003 219.585 152.732 218.078ZM149.647 234.192C153.81 230.632 157.419 226.733 161.242 222.964C163.093 221.171 164.173 218.572 167.966 218.936C168.428 218.936 169.292 217.975 169.538 217.324C170.292 215.343 171.628 213.555 173.425 212.126C178.513 207.682 183.603 203.237 188.536 198.69C193.47 194.142 198.188 189.36 203.433 184.785C205.93 182.523 208.859 180.6 212.005 178.184C211.822 179.014 212.005 179.404 211.667 179.587C205.685 185.539 202.229 192.765 197.604 199.366C193.156 206.332 187.72 212.817 181.413 218.676C178.761 220.912 175.677 222.886 172.993 225.018C166.425 230.216 159.978 235.414 153.316 240.612C149.216 243.627 144.835 246.434 140.548 249.501C135.06 253.372 129.631 257.298 123.802 260.962C127.473 256.596 131.451 252.385 134.781 247.967C138.667 242.405 144.434 238.558 149.524 234.192H149.647ZM113.594 262.002C115.969 258.442 118.991 255.193 121.736 251.788C126.448 245.737 131.534 239.899 136.971 234.297C140.055 231.256 143.139 228.267 146.223 225.252L146.654 225.563C145.144 228.994 143.57 232.425 142.122 235.959C141.848 236.438 141.447 236.856 140.949 237.181C135.892 240.43 132.992 245.083 129.414 249.318C125.599 254.687 121.365 259.836 116.74 264.731C114.087 267.33 111.836 269.929 109.462 272.709C105.897 276.722 103.825 281.533 103.509 286.537C103.371 287.421 103.133 288.29 102.801 289.136C100.702 296.076 98.5742 303.015 96.6325 309.928C95.3911 314.318 93.4618 318.548 90.8962 322.509C90.6814 321.917 90.5471 321.306 90.4954 320.688C91.142 315.751 91.7906 310.812 92.5611 305.873C92.8379 304.054 93.5175 302.287 93.9802 300.468C95.0585 296.231 96.0458 291.996 97.0642 287.759C97.5579 285.939 97.434 283.835 100.148 282.846C100.826 282.613 101.227 281.676 101.627 281.001C105.606 274.633 109.338 268.215 113.472 262.002H113.594ZM213.639 124.746C215.306 122.147 217.064 119.548 218.791 116.949C219.717 115.52 221.289 115.417 223.232 115.287C220.148 119.341 217.064 123.084 213.98 126.981L213.179 126.67C213.235 126.015 213.391 125.369 213.639 124.746ZM186.255 131.556C188.783 129.944 191.589 128.698 194.181 127.345L195.013 126.332L201.027 124.019L201.212 123.785H201.396C206.009 121.009 211.094 118.836 216.478 117.339C215.614 118.692 215.151 119.6 214.505 120.406C211.506 123.376 208.833 126.569 206.517 129.944C206.362 130.284 205.499 130.36 204.573 130.698C205.129 127.112 209.169 125.241 209.229 121.836C204.48 124.903 202.229 129.633 198.405 133.273L197.635 132.933C198.467 131.582 199.238 130.334 200.07 128.879C200.903 127.424 201.706 126.463 202.415 125.188C203.123 123.916 202.26 123.916 201.427 123.629H201.181C199.793 125.552 198.374 127.476 196.955 129.373C195.538 131.271 194.181 133.297 192.731 135.144C192.423 135.532 191.836 135.741 190.756 135.689C191.991 133.844 193.101 131.972 194.427 130.205C194.974 129.68 195.327 129.03 195.441 128.337C195.557 127.645 195.429 126.938 195.075 126.306C195.075 126.593 194.858 126.981 194.613 127.112L194.181 127.345C192.452 129.399 190.725 131.427 189.06 133.532C187.982 134.857 187.118 136.312 185.976 137.639C185.414 138.062 184.78 138.411 184.094 138.678L183.541 138.21C184.249 136.937 184.989 135.611 185.699 134.415C185.551 134.265 185.385 134.126 185.206 134C184.503 134.268 183.851 134.618 183.262 135.04C181.967 136.338 180.795 137.639 179.562 139.146C178.705 140.004 177.639 140.697 176.437 141.178C175.235 141.658 173.923 141.912 172.593 141.926C172.932 141.251 172.963 140.756 173.301 140.549C177.464 137.534 181.845 134.467 186.255 131.608V131.556ZM184.929 49.8951C189.106 41.9761 194.689 34.6421 201.489 28.1402C204.573 24.8658 207.657 21.3842 210.741 18.2385C214.627 14.5219 218.853 11.1169 223.077 7.55696L224.003 8.0235C223.253 10.3336 222.328 12.6001 221.227 14.8074C215.79 24.2826 211.652 34.2505 208.89 44.5142C208.428 46.2046 208.49 47.9976 207.934 49.7123C206.639 53.6639 205.282 57.5093 203.586 61.461C200.617 68.2884 198.467 75.3491 197.172 82.5386C196.383 85.7017 195.352 88.8177 194.088 91.8693C193.782 92.6945 193.41 93.5022 192.977 94.2856C191.219 97.7689 189.339 101.226 187.672 104.682C186.007 108.139 184.125 111.751 182.768 115.365C181.159 119.839 178.769 124.088 175.677 127.97C173.64 130.439 172.13 133.168 170.31 135.767C169.784 136.43 169.197 137.055 168.552 137.639C168.197 136.888 168.034 136.086 168.071 135.28C168.108 134.474 168.346 133.683 168.767 132.959C171.543 124.746 174.627 116.585 177.094 108.296C178.852 102.318 179.562 96.1308 181.165 90.1024C182.091 86.6452 183.818 83.3446 185.144 79.9657C186.35 77.2431 187.381 74.4665 188.228 71.6482C190.091 64.8625 192.82 58.2649 196.37 51.9736C198.374 48.4398 200.349 44.9303 202.539 41.5775C204.728 38.2247 206.517 35.4707 208.366 32.4296C209.169 31.1814 209.878 29.8306 210.617 28.6346C212.191 26.0356 213.701 23.2294 215.337 20.4998C215.74 19.6521 216.081 18.7834 216.354 17.9008C215.434 17.9443 214.55 18.2142 213.811 18.6755C213.071 19.1368 212.507 19.7722 212.191 20.4998C209.107 25.6979 206.023 30.8959 202.939 36.094C199.514 42.1502 196.43 48.3614 192.977 54.4177C186.809 65.0209 183.725 76.5346 179.007 87.5034C177.866 90.8336 177.071 94.2438 176.631 97.6906C175.677 101.928 174.842 106.189 173.733 110.426C172.438 115.391 170.864 120.328 169.385 125.267C169.197 125.738 168.972 126.2 168.705 126.644L168.121 126.436C168.515 123.999 168.709 121.541 168.705 119.082C168.499 116.39 168.015 113.722 167.257 111.102C166.578 108.456 166.578 105.717 167.257 103.071C170.924 89.0858 175.431 75.2673 180.764 61.6681C181.845 57.7705 182.954 53.7161 184.929 49.8951ZM156.431 148.658C156.431 147.723 158.714 146.605 160.102 145.721C161.744 144.713 163.452 143.784 165.22 142.941C166.615 142.314 168.044 141.75 169.509 141.251C169.089 142.931 168.259 144.516 167.069 145.909C165.879 147.3 164.357 148.468 162.599 149.333L160.81 148.294C158.497 148.943 157.943 150.738 156.801 152.141C155.661 153.544 155.444 155.209 152.639 155.701C153.07 154.845 153.409 154.376 153.595 153.856C154.303 152.089 156.4 150.971 156.276 148.71L156.431 148.658ZM150.571 96.9629C151.374 91.6361 151.775 86.2552 152.36 80.9005C152.614 76.3623 154.045 71.9267 156.555 67.9054C156.817 68.4694 157.014 69.0526 157.142 69.648C157.45 73.6501 157.664 77.6261 157.974 81.6282C158.024 83.2437 158.228 84.8522 158.59 86.438C160.976 95.7339 162.277 105.204 162.475 114.714C162.397 115.146 162.397 115.584 162.475 116.014C164.851 121.836 163.741 127.711 163.217 133.636C163.204 135.637 162.723 137.616 161.798 139.458C161.18 140.229 160.443 140.927 159.608 141.536L158.99 141.172C158.99 140.107 159.176 139.068 159.362 138.029C159.823 133.069 159.238 128.08 157.633 123.291C156.987 120.692 157.202 117.912 156.739 115.234C155.842 109.558 155.419 103.834 155.475 98.1066C155.475 97.9256 155.229 97.7689 154.828 97.3006C154.539 97.842 154.291 98.3974 154.087 98.9649C152.176 105.409 154.087 111.96 154.087 118.328C154.26 122.102 154.869 125.853 155.906 129.53C156.691 131.697 156.691 134.014 155.906 136.183C155.043 133.375 154.303 130.543 153.223 127.787C152.449 125.643 151.416 123.569 150.139 121.602C148.086 118.819 147.255 115.516 147.797 112.272C148.536 107.204 149.8 102.109 150.571 96.9629ZM134.256 106.788C138.235 113.051 142.153 119.367 146.223 125.63C150.445 131.309 152.411 137.973 151.837 144.656L147.456 147.982C146.714 144.955 145.789 141.963 144.682 139.016C143.108 135.377 141.073 131.868 139.191 128.308C137.136 124.254 134.988 120.217 132.746 116.195C132.248 115.32 131.972 114.368 131.928 113.398C131.887 112.428 132.081 111.46 132.498 110.557C132.932 109.244 133.24 107.906 133.424 106.553C133.794 106.553 134.165 106.553 134.256 106.788ZM131.172 100.29C131.79 101.486 132.253 102.37 132.408 102.734L129.324 110.531C127.103 108.296 129.045 106.736 129.324 105.15C129.319 103.386 130.026 101.672 131.327 100.29H131.172ZM128.057 93.5579C128.861 94.9105 129.693 96.1569 130.495 97.6384C126.299 99.1981 128.367 103.2 125.405 105.435C125.523 101.526 126.091 97.6349 127.103 93.819L128.057 93.5579ZM117.82 110.27C115.537 105.442 114.133 100.352 113.656 95.1699C113.472 92.3898 112.546 89.6341 112.084 86.8523C111.528 84.1872 111.158 81.4976 110.972 78.7959C110.883 76.7626 111.164 74.7294 111.805 72.7657C113.98 65.625 114.626 58.2144 113.718 50.8821C113.37 48.4485 113.875 45.9817 115.168 43.7866L115.938 43.9171C116.132 44.9738 116.205 46.0444 116.153 47.1132C115.29 53.7405 117.51 60.1084 119.237 66.3718C120.966 72.6369 123.094 79.3686 125.097 85.8392C125.653 87.6322 126.423 89.3487 127.072 91.0372C123.988 93.6363 124.482 97.0152 122.939 100.211C121.86 99.3287 121.274 98.7055 121.674 97.4051C122.507 94.8061 123.032 92.2071 123.678 89.608C123.713 89.0545 123.713 88.4991 123.678 87.9438C123.063 87.9438 122.507 87.9438 122.414 88.2311C119.917 92.6492 117.541 97.0152 120.379 102.083C122.271 105.632 124.531 109.032 127.134 112.245C129.34 115.126 131.23 118.171 132.777 121.343C135.861 127.295 138.945 133.273 141.691 139.301C142.535 141.313 143.256 143.361 143.849 145.436L143.232 145.878C142.554 145.591 141.567 145.462 141.228 144.993C139.893 143.134 138.679 141.218 137.588 139.249C135.275 135.518 132.449 132.028 129.169 128.853C127.082 126.513 125.275 124.006 123.771 121.369C121.528 117.807 119.539 114.136 117.82 110.374V110.27ZM93.7943 118.067C91.4807 116.716 92.5611 114.714 91.7596 112.557C94.8127 113.831 94.9366 114.35 93.7943 118.119V118.067ZM137.588 163.472C136.762 160.991 136.093 158.476 135.583 155.936C135.244 156.091 134.504 156.35 133.333 156.793C130.65 154.194 127.812 151.309 125.097 148.451C122.013 145.15 119.146 141.667 115.845 138.471C111.057 134.214 105.366 130.75 99.0679 128.256C88.9215 123.604 78.6221 119.184 68.2278 114.714C66.5009 113.96 64.65 113.494 62.8611 112.869C54.423 109.678 46.4619 105.657 39.1453 100.888C38.8169 100.688 38.5443 100.427 38.3522 100.124C38.1601 99.8231 38.0526 99.4888 38.0361 99.1459C40.6884 100.056 43.4006 100.888 46.0529 101.745C56.1312 105.092 66.6041 107.523 77.2959 108.997L79.5764 109.361C83.5548 110.089 83.402 110.115 83.7717 113.494C83.9267 114.897 83.4329 116.873 86.6078 117.652C86.6078 115.468 86.6078 113.546 86.6078 111.701C88.1199 111.102 89.2292 111.492 88.9834 112.557C88.027 116.873 91.4209 118.794 95.1515 120.641C100.966 123.587 106.44 126.99 111.497 130.802C111.927 131.041 112.338 131.302 112.73 131.582C120.441 138.678 128.923 145.201 135.306 153.259C136.442 154.721 137.473 156.239 138.39 157.808C139.007 158.821 139.685 159.08 140.887 158.067C138.183 152.169 133.971 146.846 128.551 142.473C125.035 139.458 121.705 136.312 118.035 133.454C113.78 130.205 109.214 127.19 104.773 124.097C103.484 123.193 102.113 122.375 100.673 121.655C99.3406 121.092 98.2934 120.143 97.7274 118.982C97.1593 117.823 97.1097 116.528 97.5889 115.339C100.464 116.531 103.263 117.849 105.977 119.289C109.739 121.524 113.317 123.994 116.864 126.489C118.231 127.45 119.454 128.55 120.503 129.763C121.736 131.14 123.587 131.478 125.097 132.362C127.671 133.976 129.956 135.893 131.883 138.055C135.399 141.9 138.666 145.852 141.874 149.958C142.478 151.031 142.903 152.167 143.139 153.337C141.936 154.429 140.364 155.442 141.781 157.183C143.201 158.925 144.095 158.768 145.669 157.677C146.38 157.062 147.02 156.392 147.58 155.675C149.079 153.946 150.854 152.397 152.853 151.076C151.818 152.232 151.036 153.534 150.542 154.921C150.096 157.646 148.573 160.163 146.223 162.069C145.297 162.953 144.775 163.94 146.84 164.668C149.092 162.744 151.343 160.744 153.717 158.847C156.326 156.669 159.065 154.604 161.922 152.66C166.216 149.755 170.694 147.048 175.336 144.551C179.312 142.598 183.433 140.863 187.672 139.353C194.673 136.754 201.766 134.155 208.738 131.427C213.456 129.556 217.99 127.345 222.708 125.345C224.897 124.408 227.18 123.681 229.338 122.746C234.581 120.485 239.917 121.759 245.221 122.382C247.504 122.642 249.755 123.343 251.666 121.446L254.75 123.785C255.337 123.5 255.923 123.369 256.169 123.058C256.679 122.231 257.483 121.557 258.464 121.129C259.447 120.701 260.563 120.54 261.66 120.666C261.903 120.706 262.155 120.706 262.399 120.666C271.651 118.067 281.49 117.158 290.494 113.753C295.152 111.986 300.056 110.609 304.774 108.971C306.319 108.357 307.815 107.653 309.246 106.866C309.246 106.657 309.246 106.424 308.998 106.189C308.352 106.189 307.581 105.749 307.026 105.904C299.438 108.217 291.605 109.777 284.388 113.13C282.636 113.814 280.777 114.287 278.869 114.533C273.954 115.417 269.05 116.282 264.157 117.132C263.448 117.262 262.707 117.132 261.505 117.339L264.989 112.583C264.775 112.402 264.589 112.193 264.372 111.986C263.636 112.158 262.938 112.43 262.306 112.792C260.641 114.143 259.222 115.677 257.526 117.027C256.479 117.743 255.364 118.385 254.196 118.951C254.196 115.936 258.359 115.287 257.65 112.272C256.857 112.411 256.103 112.675 255.43 113.051C253.61 114.559 251.914 116.195 250.125 117.755C248.892 118.847 247.657 120.069 245.128 118.899L249.045 114.585C247.842 113.467 246.979 113.96 246.209 114.585C244.785 115.67 243.486 116.86 242.321 118.145C241.519 119.108 240.749 119.626 239.485 119.315C234.426 118.042 230.233 119.888 225.978 121.914C224.065 122.772 222.214 123.681 220.332 124.513L219.807 123.968L226.469 113.805C229.551 112.956 232.693 112.27 235.876 111.751C244.015 110.505 252.319 110.226 260.548 110.921C265.768 111.443 271.031 111.565 276.276 111.285C276.522 111.309 276.772 111.309 277.018 111.285C285.127 109.542 293.27 107.984 301.258 106.087C307.426 104.579 313.163 102.889 319.762 103.747C323.648 104.267 327.626 104.267 331.791 105.021C330.898 105.474 329.958 105.857 328.983 106.163C321.78 108.135 314.753 110.533 307.951 113.337C301.783 115.624 295.305 117.6 288.953 119.679C288.242 119.938 287.472 120.069 286.795 120.38C280.976 123.021 274.7 124.872 268.197 125.864C263.682 127.098 259.255 128.548 254.936 130.205C246.917 132.467 238.867 134.728 230.695 136.495C226.884 136.961 223.042 137.203 219.192 137.223C216.108 137.508 213.024 138.183 210.155 138.678L200.008 140.342C191.477 141.992 183.278 144.689 175.677 148.346C170.467 150.681 165.601 153.525 161.18 156.819C158.486 158.614 156.189 160.796 154.396 163.265C153.552 164.443 153.083 165.787 153.039 167.163C153.11 168.338 152.765 169.504 152.052 170.515C146.652 178.043 142.168 186.01 138.666 194.297C136.909 197.883 134.847 201.357 132.498 204.693C131.718 206.057 131.048 207.464 130.495 208.904C128.411 214.615 125.609 220.121 122.137 225.33C121.092 221.171 121.858 216.835 124.296 213.115C125.068 212.303 125.75 211.433 126.33 210.516C126.824 209.501 126.979 208.435 128.768 208.435C130.063 208.435 130.65 207.682 130.772 206.461C131.017 204.856 131.43 203.274 132.007 201.73C133.362 197.338 134.75 192.946 136.076 188.554C136.076 187.955 135.892 187.253 136.076 186.63C136.002 184.788 136.605 182.973 137.803 181.432C138.483 180.401 138.805 179.23 138.729 178.053C138.609 176.486 138.588 174.916 138.666 173.349C139.301 170.051 138.929 166.67 137.588 163.524V163.472ZM88.5827 184.525C90.2166 191.308 91.6667 198.118 93.1477 204.902C93.1477 205.551 93.1477 206.2 93.4555 206.825L98.7292 226.395C98.8325 226.703 98.8511 227.029 98.7829 227.344C98.7127 227.661 98.5577 227.958 98.3284 228.214C96.5085 224.134 94.7507 220.027 92.8999 215.921C91.8815 213.712 90.8033 211.529 89.6321 209.372C87.9651 206.331 86.2072 203.316 84.4803 200.301C84.1395 199.724 83.9597 199.087 83.9597 198.443C83.9597 197.797 84.1395 197.162 84.4803 196.584C85.2528 194.921 85.7445 193.179 86.486 191.179C83.402 191.179 83.8647 194.115 81.2434 194.66C80.8716 193.569 79.9482 192.425 80.194 191.49C81.5202 186.682 83.1232 181.952 84.8191 176.572C86.7029 178.979 87.9837 181.686 88.5827 184.525ZM82.4146 168.151L83.464 168.306C84.4183 174.441 80.38 179.639 78.6221 185.746C77.8041 185.352 77.1864 184.719 76.8869 183.967C76.5853 183.216 76.6205 182.396 76.9861 181.665C78.8369 177.177 80.6464 172.665 82.4146 168.125V168.151ZM99.3468 263.431C99.2683 262.245 99.2683 261.056 99.3468 259.871C99.3654 255.867 98.7953 251.879 97.6488 247.993C96.7647 243.981 95.3993 240.054 93.5794 236.271C91.5427 232.504 89.3221 228.709 87.1016 225.173C82.6005 218.391 77.6966 211.788 73.2555 204.954C68.2855 197.357 65.0053 189.06 63.5717 180.471C62.8611 176.077 61.3512 171.816 60.4877 167.476C59.2525 162.043 58.2361 156.612 57.0318 151.179C55.3752 142.69 51.6695 134.58 46.1459 127.345C45.8547 126.821 45.6274 126.273 45.4684 125.709C50.1347 127.305 54.2948 129.796 57.6185 132.985C61.7209 137.43 65.4515 142.135 69.1532 146.813C72.8548 151.492 76.2466 156.091 79.7313 160.744C80.5142 161.738 81.1835 162.79 81.7351 163.888C82.0036 164.484 82.0036 165.14 81.7351 165.733C79.4546 169.971 76.9861 174.129 74.6726 178.443C74.1665 178.072 73.8174 177.573 73.677 177.019C73.5386 176.465 73.6169 175.889 73.902 175.376C74.8274 173.141 75.6289 170.829 76.3705 168.541C76.4965 167.556 76.4965 166.562 76.3705 165.578C73.2865 167.371 73.9951 170.334 71.2188 171.79L67.5192 163.993C65.6374 165.215 66.4699 166.592 66.8397 167.45C67.951 170.465 69.277 173.402 70.5722 176.338C72.1751 179.977 74.119 183.537 75.3832 187.253C77.4323 192.956 80.1383 198.474 83.464 203.732C87.996 211.529 91.2659 219.509 94.9056 227.513C96.2917 230.632 96.9093 233.985 97.9896 237.234C98.6362 239.312 99.4067 241.366 100.024 243.471C100.347 244.508 100.532 245.57 100.58 246.643C100.394 249.092 100.394 251.548 100.58 253.997C101.311 258.283 101.018 262.647 99.7165 266.836C99.6235 265.692 99.4377 264.548 99.3468 263.406V263.431ZM109.956 242.015C110.357 239.131 111.034 236.271 111.435 233.36C112.053 228.864 112.546 224.369 113.131 219.872C113.257 218.917 113.463 217.97 113.749 217.038C115.13 211.506 115.079 205.788 113.594 200.274C113.236 200.718 112.976 201.211 112.823 201.73C112.515 205.083 112.329 208.409 112.115 211.762C112.115 212.958 112.115 214.154 111.898 215.324C110.417 223.121 108.814 231.125 107.425 239.027C107.056 241.105 106.901 243.211 106.655 245.316C106.655 246.824 106.655 248.331 106.438 249.813H105.391C105.238 249.043 105.273 248.255 105.49 247.496C105.707 246.737 106.104 246.021 106.655 245.394V245.212C106.409 244.952 105.947 244.693 105.977 244.458C106.748 236.168 107.704 227.903 108.32 219.611C108.721 214.751 108.506 209.891 108.752 205.032C109 200.612 109.522 196.194 109.925 191.75C110.14 189.151 110.417 186.837 110.572 184.369C110.848 180.262 110.972 176.13 111.251 172.049C111.357 171.217 111.79 170.441 112.484 169.84C113.379 172.698 114.335 175.532 115.168 178.417C117.14 185.331 119.115 192.244 120.935 199.209C122.428 203.958 122.247 208.972 120.41 213.633C118.466 218.001 118.867 222.548 118.221 227.045C118.221 228.11 117.942 229.177 117.696 230.242C116.709 234.815 115.752 239.39 114.612 243.939C113.903 246.797 112.885 249.605 111.96 252.645C114.643 254.024 113.718 255.973 112.515 257.843C110.078 261.509 107.519 265.147 104.711 269.254C104.224 265.915 104.788 262.526 106.347 259.429C107.651 256.718 108.541 253.881 109 250.982C109.584 248.046 109.553 244.978 109.956 241.989V242.015ZM47.9967 233.907C48.4409 234.593 48.7321 235.341 48.8601 236.116C48.4511 239.777 47.1147 243.323 44.9437 246.512C44.1732 242.094 46.9784 238.299 47.0713 234.037L47.9967 233.907ZM45.2514 232.868C44.1731 235.985 43.0309 239.079 41.8907 242.172C41.8907 242.51 41.2421 242.743 40.7174 243.211C40.3786 242.639 39.9159 242.249 39.9778 241.963C40.9033 237.728 41.8597 233.543 42.907 228.968C44.8508 230.007 45.869 231.099 45.2514 232.789V232.868ZM59.963 298.259C55.3359 291.917 51.7273 285.029 47.627 278.376C46.9122 276.875 46.0777 275.416 45.1275 274.01C40.1017 267.98 38.0651 260.858 34.7972 254.178C31.8433 248.444 28.2593 242.954 24.095 237.778C20.7032 233.153 17.1255 228.709 13.7337 224.056C12.6224 222.398 11.6949 220.658 10.9575 218.858C9.26156 215.012 7.87348 211.06 6.02266 207.267C4.52506 203.058 3.96107 198.652 4.35768 194.27C19.7778 203.342 29.9863 215.609 41.366 226.785L37.1107 239.105C36.5571 236.835 36.6935 234.483 37.5115 232.269C37.8193 230.164 38.1579 228.059 38.5277 225.798C36.8938 225.46 36.4002 226.058 36.1234 227.201C35.6586 229.487 34.9459 231.731 33.9957 233.907C33.1591 231.762 33.2231 229.44 34.1795 227.332C34.6732 226.239 34.9522 225.278 32.9774 224.524C32.2069 226.421 31.5273 228.162 30.542 230.658C27.6418 227.175 25.4212 224.393 22.9238 221.457C21.4738 222.134 21.6906 223.38 22.492 224.498C23.7562 226.239 25.2972 227.824 26.6854 229.515C28.6291 231.905 30.542 234.349 32.4837 236.739C34.4274 239.131 36.1543 241.392 38.2199 243.549C40.2856 245.706 43.4006 248.253 45.7761 250.749C46.9722 252.013 47.9099 253.435 48.5524 254.958C51.0807 260.52 53.4562 266.134 55.8297 271.722C57.7115 275.632 58.8765 279.76 59.2835 283.964C59.7751 287.158 60.9567 290.25 62.7682 293.087C65.5755 298.285 68.7213 303.638 71.8363 308.862C73.3092 310.793 74.3524 312.934 74.9205 315.178C69.5539 309.278 64.1873 304.08 59.963 298.181V298.259ZM86.5171 391.565C86.1597 392.473 85.4367 393.248 84.4741 393.756C83.5115 394.265 82.3691 394.472 81.2434 394.345C80.8096 394.24 80.4109 394.056 80.0721 393.807C79.7333 393.556 79.4628 393.248 79.281 392.901C79.0992 392.555 79.0083 392.179 79.0166 391.799C79.0248 391.42 79.1323 391.047 79.3307 390.706C79.7231 389.899 80.4584 389.244 81.3942 388.87C82.3299 388.494 83.3979 388.426 84.3874 388.68C86.2382 389.173 87.0397 390.264 86.5171 391.486V391.565ZM88.12 357.44C87.2256 362.793 86.2071 368.173 85.7134 373.552C85.3747 377.504 85.7135 381.48 85.8994 385.639L79.7313 386.184C79.5909 385.419 79.529 384.645 79.5455 383.87C79.9173 380.622 80.4709 377.4 80.8427 374.151C81.7061 366.718 82.5695 359.285 83.278 351.852C83.4639 350.161 82.8153 348.394 82.9392 346.653C83.1541 343.377 83.6788 340.103 83.9866 336.802C84.1332 335.751 84.0589 334.687 83.7717 333.658C83.0921 331.604 82.1068 329.578 81.3343 327.55C80.1465 325.153 79.5185 322.585 79.4855 319.986C79.4318 318.257 79.0146 316.55 78.2503 314.945C77.3745 312.56 76.3457 310.217 75.1662 307.928C73.6252 304.991 71.8364 302.157 70.1095 299.272L64.9598 290.826L68.4136 282.118C65.3296 281.963 65.8522 284.562 64.3422 285.471C62.4914 283.081 62.3076 282.872 64.1563 278.713C65.1437 276.609 65.1127 273.958 68.0438 272.372L66.6867 270.215C62.8921 271.463 64.3733 275.18 61.659 277.103C61.2231 276.666 60.9277 276.144 60.7975 275.585C60.6674 275.026 60.7087 274.448 60.9194 273.905C61.9357 271.463 63.109 269.097 64.0034 266.655C64.3133 265.993 64.398 265.274 64.2493 264.575C63.9002 263.544 63.4561 262.536 62.9232 261.56C61.721 264.472 60.5186 267.383 59.3454 270.293L58.2671 270.06C55.5219 266.082 59.3764 262.886 60.5188 259.274C59.9941 258.389 59.1306 258.389 58.482 259.143C57.2488 260.625 56.1994 262.237 54.7513 264.341C53.0534 260.468 51.6674 256.908 49.9405 253.244C52.285 250.657 53.4541 247.449 53.2393 244.198C50.1553 243.316 51.2666 246.226 49.6306 246.797C49.3393 244.174 49.8268 241.53 51.0497 239.105C53.5781 240.092 53.9789 242.198 54.7205 243.835C56.9204 249.017 59.6119 254.039 62.7682 258.858C63.0822 259.544 63.299 260.259 63.4168 260.989C65.8728 262.874 67.6018 265.337 68.3826 268.058C69.2811 270.411 70.0227 272.807 70.6032 275.232L73.1936 283.885C76.2776 291.19 79.3616 298.466 81.9519 305.873C82.646 308.739 82.9662 311.658 82.9083 314.581C83.0963 320.193 84.0176 325.771 85.6536 331.214C85.9923 332.227 86.9797 333.112 87.1636 334.125C87.6263 337.036 89.6629 339.998 89.2002 342.65C88.3657 347.51 88.9215 352.475 88.12 357.361V357.44ZM107.519 312.137C103.478 316.348 99.6855 320.714 95.831 325.132C94.9366 326.147 94.1951 327.29 92.9619 328.927C92.8483 328.211 92.8483 327.486 92.9619 326.77C94.3893 322.045 96.9609 317.62 100.518 313.775C102.602 311.524 104.498 309.153 106.192 306.679C112.755 299.058 119.906 291.809 127.597 284.977C127.944 284.663 128.313 284.367 128.706 284.094L129.476 284.301C129.367 284.98 129.191 285.649 128.952 286.303C127.349 289.24 125.868 292.177 124.019 295.061C123.436 295.998 122.722 296.87 121.889 297.66C117.078 302.494 112.206 307.2 107.519 312.06V312.137ZM124.234 302.313C121.92 303.757 119.489 305.059 116.956 306.211L116.401 305.614C117.295 304.939 118.097 304.211 119.022 303.586C119.948 302.963 120.78 302.884 121.212 302.313C127.38 293.737 136.632 287.395 144.806 280.351C148.753 276.973 153.223 274.036 157.142 270.735C161.058 267.435 164.789 264.056 168.583 260.703C170.248 259.222 171.975 257.74 173.516 256.18C174.163 255.362 174.71 254.492 175.152 253.581C175.551 252.64 176.135 251.762 176.879 250.982C179.606 248.601 181.855 245.863 183.541 242.874C185.423 240.699 187.482 238.642 189.709 236.713C191.37 235.063 192.865 233.298 194.181 231.438C194.708 230.303 194.805 229.059 194.458 227.877C199.124 222.125 203.792 216.398 208.459 210.697L209.107 211.034C207.195 214.18 205.282 217.324 203.34 220.443L190.479 241.236C187.399 245.983 183.706 250.427 179.469 254.49C171.913 262.002 164.419 269.513 156.679 276.894C146.582 285.973 135.739 294.44 124.234 302.235V302.313ZM266.101 255.011C266.295 254.492 266.543 253.987 266.84 253.503C268.968 250.904 271.188 248.15 273.223 245.368C274.549 243.549 275.568 241.547 276.739 239.624L279.114 235.933C279.631 235.28 280.106 234.603 280.534 233.907C286.516 222.498 293.857 211.607 298.575 199.73C299.802 197.232 301.213 194.801 302.799 192.451C305.883 187.253 308.566 182.264 311.56 177.247C312.702 175.346 314.166 173.597 315.908 172.049L317.11 172.622C316.802 173.376 316.585 174.129 316.216 174.831C313.768 179.145 311.322 183.476 308.876 187.826C307.333 190.425 305.606 193.231 304.156 196.013C302.336 199.468 300.857 203.056 299.007 206.409C296.569 210.958 293.979 215.428 291.358 219.872C287.842 225.85 283.925 231.698 280.686 237.778C277.555 243.582 273.475 248.989 268.567 253.841C268.263 254.159 267.885 254.42 267.454 254.608C267.024 254.796 266.553 254.908 266.07 254.932L266.101 255.011ZM71.8055 282.587L73.2555 283.809C73.0696 284.199 72.8548 284.589 72.2992 285.68C71.8365 284.275 71.5596 283.548 71.3117 282.794L71.8055 282.587Z" fill="#802D69"/>
</g>
</svg>
