<svg width="853" height="730" viewBox="0 0 853 730" fill="none" xmlns="http://www.w3.org/2000/svg">
<path opacity="0.52" d="M800.23 426.123C798.556 414.268 795.835 402.414 791.858 391.015C761.72 304.154 671.722 280.9 600.561 249.667C516.215 212.734 444.636 148.216 356.522 120.174C274.896 94.1842 171.504 82.3292 105.994 154.143C57.228 207.49 70.4137 284.32 127.552 321.937C160.202 343.367 221.316 355.678 222.154 407.885C222.572 435.927 215.456 464.88 211.27 492.238C202.898 548.093 193.899 619.907 240.572 659.575C288.082 700.156 350.243 715.886 409.892 710.871C460.961 706.539 505.75 677.814 550.54 653.192C572.725 641.109 595.538 629.482 619.607 622.415C645.979 614.663 673.187 615.803 699.559 608.052C771.138 587.078 810.695 503.637 800.23 426.123Z" fill="#F9DABE"/>
<path d="M722.053 100.529C710.333 74.5389 688.147 54.4766 660.939 51.9688C641.474 50.145 622.219 57.4404 604.847 67.2435C569.267 87.0778 536.198 115.803 496.013 123.327C475.293 127.202 461.688 116.259 455.619 95.7411C449.758 75.9068 442.642 53.5647 430.085 37.6061C388.853 -14.8294 291.321 22.7874 262.648 73.399C226.23 137.462 326.483 224.55 258.88 272.882C216.393 303.203 148.581 297.504 123.047 352.903C97.5127 408.074 135.814 465.069 181.022 489.691C263.066 534.147 361.645 504.738 427.155 440.219C476.548 391.659 517.152 334.437 576.801 299.556C635.614 265.131 718.286 247.576 730.425 162.539C733.774 140.425 730.216 118.767 722.053 100.529Z" fill="url(#paint0_linear_1132_509)"/>
<path d="M797.609 331.7C788.819 314.374 776.889 298.415 762.238 284.736C714.937 240.964 652.148 223.638 592.708 210.871C571.36 206.311 550.43 189.669 559.43 163.451C566.127 144.529 575.127 128.57 569.895 107.14C550.43 28.4866 445.363 51.7406 402.039 85.2537C382.365 100.528 365.203 121.503 341.971 130.394C311.623 142.021 276.252 134.269 244.648 139.057C210.742 144.301 179.557 162.767 159.255 192.86C136.233 227.285 140.837 275.161 162.185 308.902C196.301 362.478 249.881 406.022 295.717 447.058C350.343 496.074 410.83 551.701 476.758 580.655C540.175 608.468 616.149 615.536 680.403 587.038C738.378 561.277 787.144 511.805 807.028 445.918C819.376 406.478 814.772 366.125 797.609 331.7Z" fill="url(#paint1_linear_1132_509)"/>
<path d="M93.1177 347.203C84.9551 322.809 62.351 296.82 37.0261 295.908C2.07363 294.54 -8.18184 336.716 6.46891 365.442C18.1895 388.24 38.0727 405.11 52.3049 425.856C64.6534 443.867 84.5365 443.183 93.7455 422.665C102.745 402.603 101.908 372.965 93.1177 347.203Z" fill="url(#paint2_linear_1132_509)"/>
<path d="M138.326 493.111C137.698 490.375 136.651 487.639 135.186 485.132C133.93 482.852 132.047 480.344 130.163 478.52C126.396 475.101 123.675 473.277 118.861 471.453C116.14 470.313 113.419 470.313 110.698 469.857C103.582 469.173 94.7919 474.644 91.8618 481.712C89.7688 486.271 88.5131 490.375 88.5131 495.619C88.5131 497.671 88.9316 500.634 89.3502 502.686C89.7688 504.966 90.8153 507.474 92.0711 509.526C94.3734 513.629 97.3035 517.277 101.28 519.785C105.466 522.52 109.652 523.432 114.466 523.66C117.187 523.66 119.907 523.204 122.628 522.064C124.931 521.38 127.024 520.468 128.907 518.873C130.372 517.733 131.628 516.593 133.093 515.225C135.186 513.173 136.651 510.665 137.488 507.93C139.163 503.142 139.581 498.354 138.326 493.111Z" fill="url(#paint3_linear_1132_509)"/>
<path d="M699.977 642.075C700.742 633.912 696.395 627.153 689.256 624.745C680.728 621.869 672.01 628.071 664.364 631.748C650.158 638.505 634.591 641.435 619.325 640.858C602.054 640.326 585.739 634.342 569.165 630.436C531.31 621.519 490.606 623.67 456.044 646.9C452.029 649.636 452.567 656.554 457.764 656.863C491.564 658.158 525.765 652.369 558.508 662.691C591.846 673.213 623.221 682.352 658.826 671.744C672.159 667.579 698.26 660.262 699.977 642.075Z" fill="url(#paint4_linear_1132_509)"/>
<path d="M244.648 51.285C236.904 41.4818 225.393 36.2383 213.881 33.2746C204.882 30.9947 189.603 27.575 181.859 33.9585C179.138 36.2383 177.883 39.658 179.557 43.0777C184.161 51.9689 196.719 55.3886 205.3 59.0363C215.765 63.5959 227.067 67.4716 238.579 66.5597C246.113 66.1037 249.462 57.2125 244.648 51.285Z" fill="url(#paint5_linear_1132_509)"/>
<path d="M274.577 0.217356C266.624 -1.83447 259.927 11.1604 257.415 17.3159C253.229 27.119 251.974 36.0102 254.904 46.4973C255.95 50.373 261.183 50.373 262.229 46.4973C264.95 36.4662 268.299 26.2071 273.95 17.5439C276.88 13.2122 283.577 2.49716 274.577 0.217356Z" fill="url(#paint6_linear_1132_509)"/>
<defs>
<linearGradient id="paint0_linear_1132_509" x1="802.207" y1="52.4871" x2="28.4189" y2="339.947" gradientUnits="userSpaceOnUse">
<stop stop-color="#F9DABE"/>
<stop offset="1" stop-color="#E9B7D4"/>
</linearGradient>
<linearGradient id="paint1_linear_1132_509" x1="144.134" y1="330.009" x2="814.075" y2="330.009" gradientUnits="userSpaceOnUse">
<stop stop-color="#FFB55C"/>
<stop offset="0.3018" stop-color="#F8B680"/>
<stop offset="1" stop-color="#E9B7D4"/>
</linearGradient>
<linearGradient id="paint2_linear_1132_509" x1="93.9272" y1="349.121" x2="11.4478" y2="379.762" gradientUnits="userSpaceOnUse">
<stop stop-color="#F9DABE"/>
<stop offset="1" stop-color="#E9B7D4"/>
</linearGradient>
<linearGradient id="paint3_linear_1132_509" x1="136.174" y1="486.424" x2="89.5325" y2="503.751" gradientUnits="userSpaceOnUse">
<stop stop-color="#F9DABE"/>
<stop offset="1" stop-color="#E9B7D4"/>
</linearGradient>
<linearGradient id="paint4_linear_1132_509" x1="700.038" y1="639.882" x2="453.096" y2="647.392" gradientUnits="userSpaceOnUse">
<stop stop-color="#F9DABE"/>
<stop offset="1" stop-color="#E9B7D4"/>
</linearGradient>
<linearGradient id="paint5_linear_1132_509" x1="240.069" y1="37.2045" x2="185.178" y2="57.5961" gradientUnits="userSpaceOnUse">
<stop stop-color="#F9DABE"/>
<stop offset="1" stop-color="#E9B7D4"/>
</linearGradient>
<linearGradient id="paint6_linear_1132_509" x1="283.65" y1="16.6691" x2="248.399" y2="29.7649" gradientUnits="userSpaceOnUse">
<stop stop-color="#F9DABE"/>
<stop offset="1" stop-color="#E9B7D4"/>
</linearGradient>
</defs>
</svg>
