<svg width="41" height="50" viewBox="0 0 41 50" fill="none" xmlns="http://www.w3.org/2000/svg">
<path d="M20.0785 25.1448C19.8935 24.9229 19.736 24.7573 19.5986 24.5629C18.2072 22.6063 17.2107 20.3664 16.3665 18.0278C16.2682 17.7534 16.1972 17.4483 16.1906 17.1613C16.1868 17.0065 16.3052 16.789 16.4263 16.7037C16.5183 16.6406 16.7279 16.6995 16.8166 16.7932C16.9876 16.9687 17.1422 17.1902 17.2587 17.4272C18.0301 18.989 18.7944 20.5529 19.549 22.1241C19.8299 22.7127 20.0985 23.3141 20.3698 23.9101C20.4625 24.1081 20.5456 24.3135 20.617 24.5176C20.7013 24.7456 20.6957 24.9948 20.5099 25.1124C20.3869 25.1891 20.2767 25.2896 20.0785 25.1448Z" fill="#7E053A"/>
<path d="M30.4767 22.4887C30.3156 22.7184 30.1426 22.9974 29.9479 23.246C29.1767 24.2245 28.4055 25.2029 27.6279 26.1694C27.4585 26.3786 27.2556 26.5561 27.0497 26.7025C26.7757 26.9005 26.5415 26.867 26.3622 26.671C26.1829 26.475 26.1505 26.1908 26.3101 25.8514C26.4177 25.6188 26.542 25.3766 26.6939 25.1908C27.7011 23.9794 28.7173 22.7747 29.7354 21.5785C29.8496 21.4448 29.9935 21.3254 30.1435 21.2685C30.5154 21.1203 30.8154 21.4696 30.7083 21.9268C30.6642 22.1046 30.5648 22.2708 30.4767 22.4887Z" fill="#7E053A"/>
<path d="M11.076 28.661C10.8747 28.485 10.6889 28.2771 10.5129 28.0618C10.3569 27.8682 10.2992 27.6235 10.3984 27.3702C10.4839 27.1577 10.7619 27.0639 11.0028 27.1964C11.3255 27.3741 11.6502 27.5604 11.9442 27.7968C12.8309 28.5092 13.7117 29.2463 14.5854 29.9855C14.8742 30.2325 15.1526 30.5009 15.4259 30.78C15.5191 30.877 15.6064 30.9986 15.6536 31.1271C15.7922 31.4816 15.6074 31.8099 15.2945 31.7623C15.1184 31.7351 14.9315 31.6421 14.7783 31.5302C14.2607 31.1885 11.7901 29.2763 11.076 28.661Z" fill="#7E053A"/>
</svg>
